<?xml version="1.0" encoding="utf-8"?>
<!DOCTYPE svg PUBLIC "-//W3C//DTD SVG 1.0//EN" "http://www.w3.org/TR/2001/REC-SVG-20010904/DTD/svg10.dtd">
<svg version="1.0" xmlns="http://www.w3.org/2000/svg" width="400px" height="392px" viewBox="0 0 400 392" preserveAspectRatio="xMidYMid meet">
 <g fill="#edeaeb">
  <path d="M200 158.7 c0 -1.3 -1.7 -6 -3.7 -10.3 -3.2 -6.8 -3.8 -7.5 -4.1 -5.1 l-0.3 2.7 -33.5 0 c-21.5 0 -33.4 -0.4 -33.4 -1 0 -2.3 -7.4 -9 -11.1 -10.2 -2.1 -0.6 -3.9 -1.6 -3.9 -2.2 0 -0.7 -0.3 -0.7 -0.8 -0.1 -1.1 1.5 -8 4.5 -10.4 4.5 -1.7 0 -1.8 -0.2 -0.8 -1.5 1.1 -1.3 0 -1.5 -8.8 -1.5 -7 0 -10.2 0.4 -10.6 1.3 -0.5 1 -0.7 1 -1.2 0 -0.4 -1 -5.1 -1.3 -18.5 -1.3 l-17.9 0 0 -39 c0 -33.3 0.2 -39 1.4 -39 2.2 0 2.9 1.8 0.9 2.3 -1 0.3 7.6 0.5 19.2 0.5 11.9 0 20.1 -0.3 19 -0.8 -4.1 -1.7 1.4 -2 36.5 -2.3 l35.5 -0.2 -35.7 -0.3 c-31.1 -0.2 -35.8 -0.4 -35.8 -1.7 0 -0.8 0.5 -1.5 1 -1.5 0.6 0 1 -6 1 -16 l0 -16 55 0 54.9 0 0.3 21 0.3 21 -19.7 0 -19.8 0 0 22 0 22 18.5 0 18.4 0 0.3 9.8 0.3 9.7 8.4 0.3 c7.3 0.2 8.9 0 11.3 -1.8 2.4 -1.8 4 -2 10.4 -1.8 l7.7 0.3 4.5 13 c2.5 7.2 4.6 13.2 4.8 13.3 0.1 0.2 4.8 0.3 10.3 0.3 l10.1 -0.1 0 4.4 0 4.5 -4.5 0.7 c-2.5 0.3 -5.4 0.4 -6.5 0.1 -1 -0.3 -2.1 0 -2.3 0.7 -0.3 0.8 -7.3 1.2 -23.5 1.4 l-23.2 0.4 0 -2.5z m-115 -46.6 c0 -1.4 -1.8 -2.3 -3 -1.6 -0.6 0.4 -0.8 1.1 -0.5 1.6 0.8 1.2 3.5 1.2 3.5 0z"/>
  <path d="M269.7 86.4 c-0.4 -0.4 -0.7 -2.2 -0.7 -4.1 0 -3.3 0.1 -3.3 4.6 -3.3 l4.5 0 -0.3 3.8 c-0.3 3.5 -0.5 3.7 -3.8 4 -2 0.2 -3.9 0 -4.3 -0.4z"/>
 </g>
 <g fill="#e2a2b5">
  <path d="M23 187 c0 -0.5 0.5 -1 1 -1 0.6 0 1 -7.3 1 -20 l0 -20 4.6 0 4.7 0 -0.7 6.9 c-0.4 4.3 -0.2 7.2 0.4 7.6 0.5 0.3 1 -0.1 1 -1 0 -0.9 0.5 -1.3 1 -1 1.5 1 1.3 26.2 -0.2 26.8 -1 0.4 -1 0.6 0 0.6 2.3 0.2 1.2 2.1 -1.2 2.1 -3 0 -4.3 -1.7 -1.9 -2.3 1 -0.3 -0.2 -0.5 -2.7 -0.5 -2.5 0 -3.7 0.2 -2.7 0.5 0.9 0.2 1.5 0.9 1.2 1.4 -0.8 1.2 -5.5 1.2 -5.5 -0.1z"/>
  <path d="M126 149.8 c-0.1 -1.3 -0.7 -3.4 -1.5 -4.8 -0.8 -1.4 -1.4 -4 -1.5 -5.9 0 -3.3 0 -3.4 2 -1.6 1.1 1 2.2 2.6 2.5 3.6 0.4 1.1 1.5 1.9 2.5 1.9 2.1 0 3 1.9 3 6.1 0 2.7 -0.3 2.9 -3.5 2.9 -3 0 -3.5 -0.4 -3.5 -2.2z"/>
  <path d="M76.8 135.3 c-0.2 -1 -0.1 -3.3 0.3 -5 0.6 -2.8 0.4 -3.3 -1.2 -3.3 -1 0 -1.9 -0.4 -1.9 -1 0 -0.5 0.9 -1 2 -1 2 0 3.1 -2.4 3.4 -7.5 0.1 -1.7 0.7 -2.5 1.9 -2.5 2 0 2.2 2.2 0.6 10.6 -1.8 9.5 -4.2 14 -5.1 9.7z"/>
  <path d="M113.8 135.3 c-1 -0.2 -1.8 -0.9 -1.8 -1.4 0 -0.5 -0.7 -0.9 -1.5 -0.9 -0.8 0 -1.5 -0.4 -1.5 -0.8 0 -0.5 -1.5 -0.7 -3.2 -0.6 -1.8 0.2 -2.5 0.1 -1.5 -0.2 2.6 -0.8 2.1 -1.6 -3.6 -5.7 -4.8 -3.5 -5.2 -3.6 -5.5 -1.7 -0.5 3.2 -2.2 2.3 -2.2 -1.2 -0.1 -4 -3.9 -7.3 -7.2 -6.2 -2 0.6 -2.1 0.4 -1.4 -3.5 0.6 -3.7 0.4 -4.1 -1.4 -4.1 -1.5 0 -2 0.7 -2 2.5 0 1.8 -0.5 2.5 -2 2.5 -2.8 0 -2.6 -3.5 0.5 -6.5 1.3 -1.4 2.9 -2.5 3.5 -2.5 1.2 0 4.5 3.4 7.5 7.6 l2 2.9 0.6 -3 0.7 -3 0.1 2.8 c0 1.5 0.9 3.5 2 4.6 3.1 3.1 12.7 10.1 13.9 10.1 0.6 0 1.7 0.8 2.4 1.8 0.7 1 2.8 2.4 4.6 3 2.9 1 3.2 0.9 3.2 -1 0 -2.9 0.6 -2 1.3 2 0.6 3.1 0.5 3.2 -2.6 3.1 -1.7 -0.1 -4 -0.3 -4.9 -0.6z"/>
  <path d="M247.4 85.6 c-0.3 -0.8 -0.4 -2.7 -0.2 -4.3 0.3 -2.6 0.6 -2.8 4.8 -2.8 l4.5 0 0.3 4.3 0.3 4.2 -4.6 0 c-3 0 -4.7 -0.5 -5.1 -1.4z"/>
  <path d="M260.2 82.8 l0.3 -4.3 4.5 0 4.5 0 0.3 4.3 0.3 4.2 -5.1 0 -5.1 0 0.3 -4.2z"/>
 </g>
 <g fill="#94b1eb">
  <path d="M232 247 c0 -0.5 -0.9 -1 -2 -1 -1.5 0 -2 -0.7 -2 -2.9 0 -3.9 0.9 -6.1 2.6 -6.1 0.8 0 1.4 -0.4 1.4 -1 0 -0.5 0.5 -1 1 -1 0.6 0 1 2.8 1 6.5 0 3.7 -0.4 6.5 -1 6.5 -0.5 0 -1 -0.4 -1 -1z"/>
  <path d="M257 244.8 c0 -1.8 0.3 -5 0.6 -7 0.6 -3.3 1 -3.8 3.3 -3.7 1.4 0 2 0.3 1.4 0.6 -2.3 0.9 -1.4 2.3 1.5 2.2 1.5 0 2.1 -0.3 1.5 -0.6 -3.4 -1.3 -0.5 -2.3 6.8 -2.3 7.1 0 8 0.2 6.9 1.5 -1.1 1.3 0.5 1.5 13.4 1.5 l14.6 0 0 4.5 0 4.5 -24 0 c-15.3 0 -24 0.4 -24 1 0 0.6 -0.4 1 -1 1 -0.5 0 -1 -1.5 -1 -3.2z"/>
  <path d="M230 192.5 c0 -0.9 -0.7 -1.8 -1.5 -2.1 -1.1 -0.5 -1.5 -2.2 -1.5 -6.4 l0 -5.7 -6.7 -0.6 c-12.1 -1.2 -18.4 -6.2 -20 -16.1 l-0.6 -3.6 12.7 0 c6.9 0 12.9 -0.1 13.3 -0.2 0.4 -0.2 1 1.2 1.4 3 0.4 1.8 0.9 3.5 1.1 3.8 0.3 0.2 2.6 -1.2 5.1 -3.1 3.1 -2.4 5.7 -3.5 7.9 -3.5 6.5 0 17 -4.5 16 -6.8 -0.1 -0.4 1.6 -0.8 3.9 -1 4.8 -0.4 19.3 5 20.9 7.7 0.7 1.2 0.9 0.8 0.9 -1.9 0 -3.1 -0.4 -3.7 -3.7 -5.2 -7.8 -3.4 -21.2 -4.9 -26.6 -2.8 -1.4 0.5 -3.5 1.9 -4.6 3 -1.8 1.8 -2.9 2 -6.1 1.5 -3.5 -0.6 -3.8 -0.5 -3.3 1.2 0.5 1.3 0.4 1.5 -0.4 0.8 -0.6 -0.5 -3.3 -7.3 -6 -15 l-4.9 -14 -7.9 -0.5 -7.9 -0.5 6.2 -6.2 c7.8 -7.8 17.8 -12.8 29.5 -14.8 4.6 -0.8 8.4 -1.5 8.5 -1.5 0.1 0 1.4 2.5 2.8 5.5 l2.7 5.5 2 -4 c1.1 -2.2 2.4 -4 2.9 -4 0.5 0 0.9 -0.7 0.9 -1.6 0 -1.1 0.5 -1.4 1.6 -1 0.9 0.3 2.8 0.9 4.2 1.2 10.6 2.4 23.9 9.5 31.7 17.1 11.8 11.3 18.9 26.5 16.5 35.4 -2.2 8.2 -9 12.7 -21 13.8 -5.7 0.5 -6.5 0.8 -6.3 2.6 0.2 1.1 0.6 6.4 0.9 11.8 l0.7 9.7 -32.6 0 c-28.7 0 -32.7 -0.2 -32.7 -1.5z m68.8 -45.1 c1.2 -0.4 2.2 -1.3 2.2 -2.1 0 -1.5 -9.7 -11.3 -11.2 -11.3 -0.7 0 -0.2 9.7 0.8 12.8 0.4 1.3 4.4 1.6 8.2 0.6z"/>
  <path d="M32 187 c0 -0.5 0.5 -1 1 -1 0.6 0 1 -4.3 1 -10.9 0 -5.9 0.3 -12.9 0.6 -15.5 l0.7 -4.6 4.3 0 4.4 0 0 15.5 c0 9.7 0.4 15.5 1 15.5 0.6 0 1 0.5 1 1 0 1.3 -4.7 1.3 -5.5 0.1 -0.3 -0.5 0.3 -1.2 1.2 -1.4 1 -0.3 -0.2 -0.5 -2.7 -0.5 -2.5 0 -3.7 0.2 -2.7 0.5 0.9 0.2 1.5 0.9 1.2 1.4 -0.8 1.2 -5.5 1.2 -5.5 -0.1z"/>
  <path d="M121 158.8 c0 -5.9 -0.4 -9.8 -1 -9.8 -0.5 0 -1 -0.4 -1 -1 0 -0.5 1.6 -1 3.5 -1 3.4 0 3.5 -0.1 3.6 -3.7 0 -3.2 0.2 -3.5 1 -1.8 1 1.9 1.8 2 32.9 1.7 l32 -0.3 0 12.8 0 12.8 -35.5 0 -35.5 0 0 -9.7z"/>
  <path d="M41 55.3 l0 -3.3 21.8 -0.1 c11.9 -0.1 22.9 0 24.5 0.1 2.1 0.1 2.7 -0.3 2.7 -1.9 0 -1.2 0.5 -2.1 1 -2.1 0.6 0 1 0.9 1 2 0 1.9 0.7 2 18 2 17.8 0 18.1 0 19 -2.2 l0.9 -2.3 0 2.3 c0.1 2.3 0.1 2.3 13.1 2 l13 -0.3 0 3.9 0 3.9 -57.5 -0.4 -57.5 -0.4 0 -3.2z"/>
 </g>
 <g fill="#a7a4a5">
  <path d="M225.2 170.4 c0.2 -2.4 1 -4.1 2.3 -4.8 1.1 -0.6 2.4 -1.7 2.8 -2.3 0.4 -0.7 1.4 -1.3 2.2 -1.3 0.7 0 1.7 -0.9 2 -2 0.3 -1.1 1.5 -2 2.5 -2 1.7 0 1.8 -0.3 0.9 -2.7 -4.5 -11.6 -9.7 -27.3 -9 -27.3 0.5 0 2.7 5.5 5.1 12.3 5.8 16.8 4.8 15.6 11.7 14.5 10.3 -1.6 12.6 -2.8 4.2 -2.2 -7.6 0.5 -10.2 -0.3 -7.6 -2.5 1.3 -1 15.6 -1.4 19 -0.5 1.9 0.6 2.4 3.4 0.5 3.4 -0.7 0 -2.1 1.1 -3.3 2.5 -1.5 1.9 -3.9 2.9 -10 4.2 -6.2 1.3 -9.2 2.6 -13.3 5.7 -4.3 3.2 -5.3 4.4 -4.9 6.3 0.5 2.7 -0.8 3 -2.2 0.6 -1 -1.7 -1 -1.7 -1.1 0 0 0.9 -0.5 1.7 -1.1 1.7 -0.6 0 -0.9 -1.5 -0.7 -3.6z"/>
  <path d="M279.8 165.4 c-0.5 -0.4 -0.8 -1.8 -0.8 -3.2 0 -1.9 -1 -2.8 -5 -4.5 -5.6 -2.3 -6.6 -4.7 -2.1 -4.7 4.2 0 6.1 0.9 6.1 3 0 1.4 0.9 2 3.8 2.2 3.5 0.3 3.7 0.5 4 4.1 0.3 3.9 -1.2 5.1 -2.1 1.7 -0.7 -2.6 -2.5 -2.6 -2.9 0.1 -0.2 1.1 -0.6 1.7 -1 1.3z"/>
  <path d="M224 159.7 c0 -2 0.9 -2.5 3.1 -2 2.8 0.8 2.4 3.3 -0.6 3.3 -1.4 0 -2.5 -0.6 -2.5 -1.3z"/>
  <path d="M279 148.9 c0 -2.9 0.1 -3 2.2 -1.5 1.9 1.4 2.3 1.4 3.4 -0.2 1.2 -1.5 1.3 -1.3 1.4 1.6 0 3 -0.2 3.2 -3.5 3.2 -3.2 0 -3.5 -0.2 -3.5 -3.1z"/>
  <path d="M188.1 134 l-3.1 -7 -20.1 0 c-12.7 0 -19.8 -0.4 -19.4 -1 0.3 -0.6 8.1 -0.9 19.5 -0.7 10.5 0.1 19 -0.1 19 -0.5 0 -0.5 1.5 -0.7 3.3 -0.7 2.3 0.1 2.6 0.3 1 0.6 -1.3 0.2 -2.3 0.6 -2.3 0.8 0 0.2 1.5 3.8 3.4 7.9 1.9 4.2 3.1 7.6 2.7 7.6 -0.5 0 -2.2 -3.1 -4 -7z"/>
  <path d="M98.2 135 c0.7 -1.1 2.8 -2.6 4.6 -3.2 2 -0.8 3.1 -1.7 2.8 -2.5 -0.3 -0.7 -0.1 -1.3 0.4 -1.3 0.6 0 1 1.5 1 3.3 0 3.7 -2.7 5.7 -7.6 5.7 -2.2 0 -2.3 -0.2 -1.2 -2z"/>
  <path d="M147.3 135.3 c1.5 -0.2 3.7 -0.2 5 0 1.2 0.2 0 0.4 -2.8 0.4 -2.7 0 -3.8 -0.2 -2.2 -0.4z"/>
  <path d="M165.8 135.3 c3.9 -0.2 10.5 -0.2 14.5 0 3.9 0.1 0.7 0.3 -7.3 0.3 -8 0 -11.2 -0.2 -7.2 -0.3z"/>
  <path d="M126.5 130.5 c-5.1 -5 -1.7 -13.5 5.4 -13.5 4.9 0 8.1 3.2 8.1 8.2 0 7 -8.6 10.3 -13.5 5.3z m10.2 -0.7 c4.6 -4.3 1.6 -11.8 -4.6 -11.8 -3.3 0 -7.1 3.9 -7.1 7.2 0 2.6 4.4 6.8 7.1 6.8 1.3 0 3.3 -1 4.6 -2.2z"/>
  <path d="M78 128 c0 -0.6 -5.8 -1 -15.5 -1 l-15.5 0 0.1 -2.7 c0 -2.8 0 -2.8 1 -0.4 0.6 1.5 1.4 2.1 2.5 1.7 0.9 -0.3 7.6 -0.6 15 -0.6 11.2 0 13.4 -0.2 13.4 -1.5 0 -2 2.8 -1.9 3.2 0.1 0.2 1.3 1.6 1.7 5.6 1.8 l5.2 0.1 0 -3.3 c0 -2 -0.6 -3.5 -1.5 -3.8 -0.8 -0.4 -1.5 -1.5 -1.5 -2.6 0 -1.4 0.5 -1.8 1.5 -1.4 1.3 0.5 1.5 -2.5 1.5 -22.9 0 -21.4 -0.1 -23.4 -1.7 -23.9 -1.1 -0.3 -0.7 -0.4 0.7 -0.3 l2.5 0.2 0.3 24.6 c0.2 20.4 0.5 24.9 1.7 25.9 0.8 0.7 1.5 2.1 1.5 3.2 0 1.7 -0.3 1.8 -1.4 0.9 -1.2 -1 -1.5 -0.7 -1.8 1.6 -0.3 2.7 -0.5 2.8 -7 3.1 -3.8 0.2 -6.8 0.7 -6.8 1.2 0 0.6 -0.7 1 -1.5 1 -0.8 0 -1.5 -0.4 -1.5 -1z"/>
  <path d="M82.1 116.8 c-0.1 -3.7 0 -3.8 3.4 -3.8 2.4 0 3.5 0.5 3.5 1.5 0 0.8 -0.3 1.5 -0.7 1.4 -1.9 -0.3 -5.2 1.5 -5.6 3 -0.3 0.9 -0.5 -0.1 -0.6 -2.1z"/>
  <path d="M145.5 117.1 c0.8 -1.3 41.2 -1.4 42 -0.1 0.4 0.7 -6.4 1 -21 1 -13 0 -21.4 -0.4 -21 -0.9z"/>
  <path d="M78.5 115 c-1.9 -2.1 -1.4 -5 1 -5 1.1 0 1.5 1 1.5 3.5 0 4.1 -0.1 4.1 -2.5 1.5z"/>
  <path d="M269 86.6 c0 -1.3 0.3 -3.8 0.6 -5.5 0.6 -2.7 1 -3.1 4 -3.1 3.7 0 4.1 1.2 2.8 7.9 -0.6 2.7 -1 3.1 -4 3.1 -2.9 0 -3.4 -0.3 -3.4 -2.4z"/>
  <path d="M100 86 c0 -0.6 8.8 -1 24.5 -1 15.7 0 24.5 0.4 24.5 1 0 0.6 -8.8 1 -24.5 1 -15.7 0 -24.5 -0.4 -24.5 -1z"/>
  <path d="M112.3 79.3 c7.1 -0.2 18.3 -0.2 25 0 6.7 0.1 1 0.3 -12.8 0.3 -13.7 0 -19.2 -0.2 -12.2 -0.3z"/>
  <path d="M90 38.5 l0 -12.5 2.8 0.1 c1.6 0.1 2 0.3 1 0.6 -1.6 0.4 -1.8 1.9 -1.8 12.4 0 7.3 -0.4 11.9 -1 11.9 -0.6 0 -1 -4.8 -1 -12.5z"/>
  <path d="M129 39.1 c0 -10.5 -0.2 -12 -1.7 -12.4 -1.4 -0.4 -1.2 -0.5 0.5 -0.6 2.2 -0.1 2.2 0.1 2.2 12.4 0 6.9 -0.2 12.5 -0.5 12.5 -0.3 0 -0.5 -5.4 -0.5 -11.9z"/>
 </g>
 <g fill="#83bb9e">
  <path d="M169 323.5 c0 -3.3 0.3 -3.6 8 -7.5 8.6 -4.3 12.4 -4.9 17.1 -2.4 3.3 1.7 7.8 1.2 11.6 -1.2 3.3 -2.1 8 -1.8 9.3 0.6 1 1.9 1.3 1.9 4 0.5 3.7 -1.9 8.9 -1.9 11.4 0 2.7 2 5.4 1.9 10.1 -0.5 7.8 -4 12.5 -1.4 12.5 6.8 0 7.4 1.4 7.2 -43.8 7.2 l-40.2 0 0 -3.5z"/>
  <path d="M21 210 l0 -24 2.3 -0.1 c1.2 0 4.1 0 6.4 0.1 3.2 0.1 4.2 -0.3 4.6 -1.7 0.4 -1.6 0.5 -1.6 0.6 0 0.2 2.5 7.8 2.5 8.4 -0.1 0.4 -1.6 0.5 -1.6 0.6 0.1 0.1 2.3 7.6 2.5 8.5 0.2 0.4 -1.2 3.2 -1.5 16.6 -1.5 13.4 0 16.2 0.3 16.6 1.5 0.5 1.3 8.8 1.5 66 1.5 l65.4 0 0 6.5 0 6.5 -67.7 0.2 -67.8 0.3 -0.3 17.3 -0.2 17.2 -30 0 -30 0 0 -24z"/>
 </g>
 <g fill="#e68371">
  <path d="M160.5 372.5 c-11 -0.7 -21.8 -1.5 -24 -1.9 -2.2 -0.3 -6.5 -0.8 -9.5 -1.1 -28.9 -2.8 -61.1 -10.7 -73.6 -18 -5.3 -3.1 -9.4 -7.9 -9.4 -11.1 0 -4 6.3 -9.8 14.6 -13.5 4.9 -2.2 7.3 -3.7 7 -4.6 -0.4 -1 0.9 -1.3 5.2 -1.2 3.1 0 8.9 -0.5 12.9 -1.2 6.7 -1.2 7.4 -1.1 9.3 0.6 2 1.8 2.4 1.8 10.9 0.2 4.8 -0.9 10.2 -1.7 11.9 -1.7 2.6 0 3.2 -0.4 3.2 -2.2 0 -1.3 1.1 -3.6 2.5 -5.3 2 -2.4 2.6 -2.7 3.4 -1.6 0.7 1.1 2.3 1.2 7.3 0.7 19.8 -2.2 40 -3.6 52.1 -3.7 8.3 0 13.5 -0.4 13.2 -1 -0.4 -0.5 0.1 -0.9 0.9 -0.9 3 0 1.9 5.8 -1.6 9.1 -3.6 3.2 -4.1 3.4 -6.8 1.9 -1.6 -0.8 -3.7 -0.2 -10.2 3.2 l-8.3 4.3 18 0.3 c11.6 0.2 18.1 -0.1 18.3 -0.8 0.2 -0.5 0.9 -1 1.7 -1 0.7 0 1.8 -0.7 2.5 -1.5 1.8 -2.2 -0.4 -7.3 -2.4 -5.6 -1.9 1.6 -2.6 0.3 -2.6 -5 0 -3.3 0.4 -4.9 1.6 -5.3 2.7 -1 4.4 -0.7 4.4 0.9 0 1.2 1.9 1.5 11.1 1.5 7.1 0 10.8 -0.4 10.4 -1 -0.3 -0.5 -0.1 -1 0.4 -1 0.6 0 1.1 1.6 1.1 3.4 0 2.8 -0.7 4 -3.6 6.2 -3 2.4 -3.9 2.6 -5.5 1.5 -1.7 -1 -3.1 -0.6 -9.9 3.1 l-8 4.3 18.7 0.3 c17.6 0.2 18.8 0.1 20.7 -1.8 2 -1.9 2 -2.1 0.4 -4.8 -1 -1.5 -2.4 -2.6 -3.3 -2.4 -1.2 0.2 -1.5 -0.7 -1.5 -4.3 0 -2.5 0.5 -4.5 1 -4.5 0.6 0 1 0.4 1 0.8 0 0.5 8.4 1.4 18.8 2 10.3 0.7 19.6 1.4 20.7 1.6 1.2 0.2 4.8 0.7 8 1.1 48.5 5.4 84 18.6 81.1 30.1 -0.9 3.4 -5.6 7.9 -11.6 10.9 -13.1 6.6 -47.9 14.9 -71.6 17 -3.8 0.3 -7.6 0.8 -8.4 1.1 -0.9 0.2 -12.6 1.1 -26 1.9 -28.7 1.7 -68.4 1.7 -96.5 0z m111.1 -53.6 c1 -1.7 -1.3 -3.6 -2.7 -2.2 -1.2 1.2 -0.4 3.3 1.1 3.3 0.5 0 1.2 -0.5 1.6 -1.1z m22.9 -0.7 c0 -1.8 -2 -1.5 -2.3 0.4 -0.3 1 0.1 1.5 1 1.2 0.7 -0.3 1.3 -1 1.3 -1.6z"/>
  <path d="M62 184 c0 -1.8 0.6 -2 6.8 -1.9 9.6 0.1 16.5 1.2 17 2.7 0.3 0.9 -2.5 1.2 -11.7 1.2 -11.4 0 -12.1 -0.1 -12.1 -2z"/>
  <path d="M122 140.5 c0 -0.8 -0.5 -1.5 -1.2 -1.5 -0.6 0 -1.9 -0.6 -2.7 -1.4 -0.9 -0.8 -3.2 -1.8 -5.1 -2.3 -2.7 -0.7 -3.7 -1.6 -4.5 -4.1 -0.5 -1.8 -1.5 -3.1 -2.1 -2.9 -0.7 0.1 -5.2 -2.7 -10 -6.3 -4.9 -3.6 -9.2 -6.4 -9.6 -6.2 -1.3 0.4 -0.9 -2.6 0.5 -3.1 0.6 -0.3 0.2 -0.6 -1 -0.6 -1.2 -0.1 -2.4 -0.7 -2.6 -1.3 -0.4 -1 -0.8 -1 -1.5 0 -0.5 0.8 -1.9 1.2 -3 1 -1.9 -0.3 -2 -0.5 -0.9 -2.8 1 -1.9 2 -2.5 4.7 -2.5 3 0 3.7 0.5 5.1 3.4 0.9 1.8 2.5 3.9 3.5 4.5 1.1 0.6 5.2 3.6 9 6.7 3.8 3.1 7.9 5.9 9.2 6.3 1.2 0.4 2.2 1.2 2.2 1.7 0 0.8 5.8 3.9 7.4 3.9 0.3 0 0.7 -1 0.9 -2.2 0.4 -2.3 0.4 -2.3 0.6 0.1 0 1.3 1.5 3.9 3.1 5.8 3.7 4.1 3.8 5.3 0.5 5.3 -1.6 0 -2.5 -0.6 -2.5 -1.5z"/>
  <path d="M77.4 131.1 c0.5 -3.5 0.4 -4.1 -1.1 -4.2 -1.5 0 -1.4 -0.2 0.3 -0.9 1.6 -0.6 2.3 -2.1 2.8 -5.4 0.7 -4.2 1 -4.6 3.4 -4.6 1.6 0 2.2 0.3 1.5 0.8 -0.7 0.4 -1.5 2.6 -1.9 4.9 -0.5 3.5 -0.3 4.2 1.2 4.6 1.7 0.4 1.7 0.5 -0.2 0.6 -1.5 0.1 -2.3 1.1 -3 3.8 -0.5 2 -1.5 3.9 -2.3 4.1 -1.1 0.4 -1.3 -0.4 -0.7 -3.7z"/>
  <path d="M260.6 85.8 c-0.3 -1.3 -0.6 -3.6 -0.6 -5.1 0 -2.8 0.1 -2.8 5.3 -2.5 5.1 0.3 5.2 0.4 5.5 3.6 0.4 4.1 -1.6 6.2 -6.1 6.2 -2.7 0 -3.6 -0.5 -4.1 -2.2z m6.2 -3 c-0.3 -0.7 -1.1 -1.3 -1.8 -1.3 -0.7 0 -1.5 0.6 -1.7 1.3 -0.3 0.7 0.4 1.2 1.7 1.2 1.3 0 2 -0.5 1.8 -1.2z"/>
  <path d="M247 81.5 c0 -3.3 0.2 -3.5 3.5 -3.5 2.8 0 3.5 0.4 3.5 1.9 0 1.1 -0.6 1.8 -1.6 1.7 -2.6 -0.2 -2.8 2.2 -0.2 2.7 1.5 0.3 1 0.5 -1.4 0.6 -3.7 0.1 -3.8 0 -3.8 -3.4z"/>
 </g>
 <g fill="#9c9b9a">
  <path d="M176.8 324.3 c2.3 -0.2 6.1 -0.2 8.5 0 2.3 0.2 0.4 0.4 -4.3 0.4 -4.7 0 -6.6 -0.2 -4.2 -0.4z"/>
  <path d="M208 323.7 c0 -0.8 1.1 -1.9 2.5 -2.5 1.4 -0.6 2.5 -1.6 2.5 -2.2 0 -0.6 0.4 -0.9 0.9 -0.5 0.6 0.3 1.5 -0.3 2.1 -1.2 1 -1.7 1.1 -1.7 0.8 0.2 -0.2 1.1 -2.1 2.9 -4.3 4.2 l-4 2.2 7.5 0.4 7.5 0.3 -7.7 0.2 c-6 0.2 -7.8 -0.1 -7.8 -1.1z"/>
  <path d="M248.6 321.6 c2 -2.7 3.7 -3.5 2.8 -1.3 -0.2 0.7 -1.4 1.8 -2.5 2.5 -2.1 1.3 -2.1 1.3 -0.3 -1.2z"/>
  <path d="M202.8 310.3 c-3.6 -0.4 -3.8 -0.6 -3.8 -3.9 0 -3.2 0.2 -3.4 3.3 -3.4 5.9 0 10.7 1.2 10.7 2.7 0 0.7 -0.7 1.6 -1.5 1.9 -0.8 0.4 -1.5 1.2 -1.5 2 0 0.8 -0.8 1.3 -1.7 1.2 -1 -0.1 -3.5 -0.3 -5.5 -0.5z"/>
  <path d="M238 306.5 l0 -3.5 5 0 c3.8 0 5 0.4 5 1.5 0 0.8 -0.5 1.5 -1.1 1.5 -0.6 0 -0.8 0.9 -0.4 2 0.6 1.8 0.2 2 -3.9 2 -4.6 0 -4.6 0 -4.6 -3.5z"/>
  <path d="M279 162 c0 -1.1 -0.7 -2.3 -1.5 -2.6 -2.7 -1.1 -1.6 -2.4 2 -2.4 3.1 0 3.5 0.3 3.5 2.6 0 1.4 -0.4 2.3 -1 1.9 -0.5 -0.3 -1 0.1 -1 0.9 0 0.9 -0.4 1.6 -1 1.6 -0.5 0 -1 -0.9 -1 -2z"/>
  <path d="M238 159 c0 -0.5 0.8 -1 1.8 -1 1.5 -0.1 1.5 -0.2 0.1 -1 -0.9 -0.5 -4 -7.7 -7 -16.1 -3.9 -11.2 -5.9 -15.3 -7.4 -16 -1.9 -0.7 -1.9 -0.8 0.2 -0.8 2.6 -0.1 3 0.7 9.3 19.1 4.8 14.3 5.3 14.7 14 12.9 3.1 -0.6 3.7 -0.9 2 -1.1 -1.8 -0.1 -1 -0.6 2.5 -1.5 l5 -1.3 -6.5 -0.2 -6.5 -0.2 5.5 -1.3 c8 -2 11 -1.9 11 0.4 0 1.4 -1.1 2.2 -3.7 2.9 -2.9 0.8 -3.2 1 -1.3 1.1 4.5 0.2 0.3 2.5 -6.8 3.8 -8.5 1.5 -12.2 1.6 -12.2 0.3z"/>
  <path d="M281 150.5 c0 -1.6 0.4 -2.3 1.4 -1.9 0.7 0.3 1.6 -0.2 1.9 -1 0.7 -1.7 3.7 -2.2 3.7 -0.6 0 0.6 -0.4 1 -1 1 -0.5 0 -1 1.1 -1 2.5 0 2 -0.5 2.5 -2.5 2.5 -2 0 -2.5 -0.5 -2.5 -2.5z"/>
  <path d="M188.3 133.9 l-3.1 -6.9 -20.4 -0.2 -20.3 -0.3 19.8 -0.2 c12 -0.2 19.7 -0.7 19.7 -1.3 0 -0.6 1.2 -0.9 2.8 -0.9 1.6 0.1 2 0.3 1 0.6 -2.4 0.6 -2.3 1 1.3 8.7 1.7 3.7 3 6.9 2.8 7.1 -0.3 0.2 -1.8 -2.8 -3.6 -6.6z"/>
  <path d="M117 134.5 c0 -0.8 0.7 -1.5 1.5 -1.5 1.3 0 1.5 -2.2 1.5 -14 l0 -14 17.8 0.2 17.7 0.2 -17.2 0.3 -17.2 0.3 -0.3 14.1 c-0.2 7.9 0.1 14.4 0.7 15 0.5 0.5 -0.1 0.9 -1.8 0.9 -1.7 0 -2.7 -0.5 -2.7 -1.5z"/>
  <path d="M153.8 135.3 c1.8 -0.2 4.5 -0.2 6 0 1.5 0.2 0 0.4 -3.3 0.4 -3.3 0 -4.5 -0.2 -2.7 -0.4z"/>
  <path d="M101 134 c0 -0.6 1.1 -1.6 2.5 -2.2 1.5 -0.7 2.4 -1.7 2.1 -2.5 -0.3 -0.7 0.1 -1.3 0.9 -1.3 1 0 1.5 1.1 1.5 3.5 0 3.3 -0.2 3.5 -3.5 3.5 -1.9 0 -3.5 -0.5 -3.5 -1z"/>
  <path d="M127.2 131.4 c-1.2 -0.8 -2.2 -2 -2.2 -2.6 0 -0.6 1 -0.2 2.3 1 2.9 2.7 7.1 2.8 9.7 0.2 4.3 -4.3 1.1 -12 -4.8 -12 -3.9 0 -6.2 2 -7.2 6 -0.7 3.3 -0.8 3.3 -0.9 0.7 -0.1 -3.8 3.9 -7.7 7.9 -7.7 1.9 0 4 0.9 5.5 2.5 6.9 6.8 -2.3 17.5 -10.3 11.9z"/>
  <path d="M78 128.6 c0 -1.4 -2 -1.6 -15.5 -1.6 l-15.5 0 0 -30 0 -30 23.5 0 c12.9 0 23.5 0.3 23.5 0.8 0 0.4 -10.3 0.6 -23 0.4 l-23 -0.3 0 29.1 0 29 15.5 0 c13.1 0 15.5 -0.2 15.5 -1.5 0 -0.8 0.6 -1.5 1.4 -1.5 1 0 1.2 0.8 0.7 3.2 -0.7 3.3 -3.1 5.2 -3.1 2.4z"/>
  <path d="M83 126.4 c3.4 -0.7 11 -0.9 11 -0.2 0 0.5 -2.8 0.7 -6.2 0.7 -3.5 -0.1 -5.6 -0.3 -4.8 -0.5z"/>
  <path d="M155.3 117.3 c5.9 -0.2 15.5 -0.2 21.5 0 5.9 0.1 1 0.3 -10.8 0.3 -11.8 0 -16.7 -0.2 -10.7 -0.3z"/>
  <path d="M83 114.5 c0 -2.4 0.3 -2.6 3.2 -2.3 3.6 0.3 5.5 3.8 2.1 3.6 -1 0 -2.6 0.3 -3.5 0.7 -1.5 0.6 -1.8 0.2 -1.8 -2z"/>
  <path d="M78 114 c-0.8 -1.4 -0.8 -2.6 0 -4 1.7 -3.2 3 -2.3 3 2 0 4.3 -1.3 5.2 -3 2z"/>
  <path d="M269 84 l0 -6 4.5 0 4.5 0 0 4 c0 4.9 -2.4 8 -6.2 8 -2.8 0 -2.8 -0.1 -2.8 -6z"/>
  <path d="M112.8 86.3 c6.8 -0.2 17.6 -0.2 24 0 6.4 0.1 0.9 0.3 -12.3 0.3 -13.2 0 -18.5 -0.2 -11.7 -0.3z"/>
  <path d="M112.3 73.3 c7.1 -0.2 18.3 -0.2 25 0 6.7 0.1 1 0.3 -12.8 0.3 -13.7 0 -19.2 -0.2 -12.2 -0.3z"/>
  <path d="M112.3 67.3 c7.1 -0.2 18.3 -0.2 25 0 6.7 0.1 1 0.3 -12.8 0.3 -13.7 0 -19.2 -0.2 -12.2 -0.3z"/>
  <path d="M81.5 58 c-1.2 -0.5 13.7 -0.9 35.7 -0.9 29.1 -0.1 37.7 -0.4 38.1 -1.3 0.3 -0.7 0.6 -0.3 0.6 1 l0.1 2.2 -36.2 -0.1 c-20 0 -37.2 -0.4 -38.3 -0.9z"/>
  <path d="M91 26.8 c0 -1 37.7 -1 38.3 0 0.3 0.4 -8.2 0.7 -18.9 0.7 -10.7 0 -19.4 -0.3 -19.4 -0.7z"/>
 </g>
 <g fill="#de915e">
  <path d="M66.7 323.5 c-2 -1.9 -2.2 -4.8 -0.6 -7.7 1.7 -3.1 0.6 -3.1 -5.6 0.2 -5.7 3 -13.5 4.1 -13.5 1.9 0 -2.7 13.4 -17.7 18.5 -20.8 1.7 -1 4.4 -2.1 6.1 -2.4 3.1 -0.6 3.2 -0.5 3.7 3.5 0.9 7.1 8 13.7 13.1 12.4 3.8 -0.9 3.8 -3.2 0.1 -7.2 -1.9 -2 -3.5 -4.2 -3.5 -4.8 0 -1.1 16.3 -5.9 24.2 -7.1 4.9 -0.7 11.2 1.9 14.1 5.9 3 4.2 3.3 13.9 0.6 17.8 -1.1 1.4 -1.9 2.9 -1.9 3.2 0 0.3 2.4 0.6 5.3 0.6 3.1 0 6.1 0.6 7.3 1.5 1.7 1.3 0.8 1.4 -9.1 1.5 -6 0 -13.9 0.7 -17.5 1.5 -8.4 1.9 -15.9 1.9 -17.9 0.1 -1.3 -1.1 -2.5 -1.2 -6.1 -0.4 -8.7 2 -15.5 2.1 -17.3 0.3z"/>
  <path d="M189.4 315.5 c-1.6 -1.2 -1.6 -1.4 -0.3 -1.5 0.9 0 3.3 -1.6 5.3 -3.6 2.9 -2.9 3.5 -3.9 2.5 -5 -0.9 -1.1 -0.7 -1.4 1.5 -1.4 2.3 0 2.6 0.4 2.6 3.6 0 2.7 -0.7 4.2 -3.2 6.5 -3.6 3.3 -5.5 3.6 -8.4 1.4z"/>
  <path d="M225.6 315.5 c-1.6 -1.2 -1.7 -1.5 -0.4 -1.5 2 0 10.1 -7.4 9.1 -8.3 -0.3 -0.4 0.1 -0.7 1 -0.7 1.3 0 1.7 0.9 1.7 3.4 0 2.8 -0.7 4 -3.3 6 -3.9 3 -5.4 3.1 -8.1 1.1z"/>
  <path d="M243 310.9 c0 -2.4 0.5 -3.9 1.3 -3.9 0.8 0 0.7 -0.4 -0.3 -1 -1.2 -0.7 -0.8 -1 1.5 -1 1.7 0 2.5 0.4 1.8 0.8 -1.6 1 -0.4 6.5 1.3 5.8 0.9 -0.3 1.4 0.2 1.4 1.3 0 1.5 -0.7 1.9 -3.5 1.9 -3.4 0 -3.5 -0.1 -3.5 -3.9z"/>
  <path d="M248.2 86.8 c-0.6 -0.6 -1.2 -2.7 -1.2 -4.5 0 -2.9 0.4 -3.3 3.4 -3.8 6 -1.2 7.1 -0.5 7.1 4.5 l0 4.5 -4 0.3 c-2.3 0.2 -4.6 -0.3 -5.3 -1z m5.6 -4 c-0.7 -1.9 -3.8 -2.2 -3.8 -0.4 0 1 0.9 1.6 2.1 1.6 1.2 0 1.9 -0.5 1.7 -1.2z"/>
  <path d="M259 83 c0 -3.9 0.1 -4 3.5 -4 1.9 0 3.5 0.5 3.5 1 0 0.6 -0.7 1 -1.5 1 -0.8 0 -1.5 0.7 -1.5 1.5 0 0.9 0.7 1.8 1.5 2.1 2.7 1.1 1.6 2.4 -2 2.4 -3.4 0 -3.5 -0.1 -3.5 -4z"/>
 </g>
 <g fill="#7790c0">
  <path d="M231.5 246.7 c-0.6 -0.7 -0.7 -3.2 -0.4 -5.7 0.4 -2.8 0.7 -3.4 0.7 -1.7 0.1 1.5 0.7 2.7 1.2 2.7 0.6 0 1 1.4 1 3 0 3.2 -0.8 3.7 -2.5 1.7z"/>
  <path d="M228.3 242.5 c0 -2.2 0.2 -3 0.4 -1.7 0.2 1.2 0.2 3 0 4 -0.3 0.9 -0.5 -0.1 -0.4 -2.3z"/>
  <path d="M257 241 c0 -3.3 0.3 -4 2 -4 2.1 0 2.5 1.6 1.4 5.8 -1.1 3.9 -3.4 2.7 -3.4 -1.8z"/>
  <path d="M264.8 235.9 c-3.6 -2.1 -1.6 -2.9 7.2 -2.9 5 0 9 0.3 9 0.6 0 2.9 -12.2 4.7 -16.2 2.3z"/>
  <path d="M230 193 c0 -2 0.7 -2 32.5 -2 31.8 0 32.5 0 32.5 2 0 2 -0.7 2 -32.5 2 -31.8 0 -32.5 0 -32.5 -2z"/>
  <path d="M43.4 170.5 c0 -8.8 0.2 -12.3 0.3 -7.7 0.2 4.6 0.2 11.8 0 16 -0.1 4.2 -0.3 0.5 -0.3 -8.3z"/>
  <path d="M222.5 178 l-5 -0.7 4.4 -0.1 c3.9 -0.2 4.3 -0.4 3.8 -2.4 -0.3 -1.3 -0.9 -5.6 -1.3 -9.5 -0.6 -7 -0.6 -7.3 1.5 -7.3 1.8 0 2.1 0.6 2.1 4.5 0 4 0.3 4.5 2.3 4.5 1.9 0.1 2 0.2 0.5 1 -1.3 0.8 -1.4 1.6 -0.6 4.4 1.2 3.8 0.5 6.7 -1.4 6.4 -0.7 0 -3.5 -0.4 -6.3 -0.8z m5.6 -6.1 c-0.9 -2.3 -1 -2.3 -1 -0.2 -0.1 1.2 0.2 3 0.6 4 0.6 1.5 0.8 1.5 1.1 0.2 0.1 -0.8 -0.2 -2.6 -0.7 -4z"/>
  <path d="M285 171.1 c-2.3 -0.4 -3.9 -1.4 -4.7 -3.1 -1.5 -3 -1.7 -6 -0.3 -6 0.6 0 1 0.9 1 1.9 0 2.6 1 5.1 2.1 5.1 1.7 0 0.9 -6.2 -0.8 -7.6 -1.6 -1.2 -1.5 -1.3 1 -1.4 2.8 0 2.8 0.1 2.6 4.8 l-0.3 4.7 4.2 0.3 c2.3 0.2 4 0.7 3.7 1.3 -0.7 1 -3 1 -8.5 0z"/>
  <path d="M134.5 157.3 c0 -4 0.3 -4.8 2 -5 1.1 -0.2 1.4 0 0.8 0.3 -0.7 0.3 -1.3 2.3 -1.3 4.4 0 2.1 0.6 4.1 1.3 4.3 0.6 0.3 0.3 0.6 -0.8 0.6 -1.8 0.1 -2.1 -0.5 -2 -4.6z"/>
  <path d="M239 160.1 c0 -1.3 0.8 -2.2 2.3 -2.5 11.5 -2.1 14.6 -2.6 16.3 -2.6 1.7 0.1 1.7 0.2 -0.4 2 -2.8 2.3 -9.3 4.2 -13 3.9 -1.5 -0.2 -3.3 0 -4 0.4 -0.8 0.6 -1.2 0.2 -1.2 -1.2z"/>
  <path d="M267.4 154.9 c-2.1 -1 -4.9 -1.8 -6.2 -1.8 -2.1 -0.1 -2.2 -0.3 -0.8 -1.6 0.8 -0.8 2.8 -1.5 4.5 -1.5 1.6 0 3.6 0.7 4.5 1.5 0.8 0.8 2.4 1.5 3.5 1.5 1.4 0 2.1 0.6 2.1 1.9 0 2.4 -2.2 2.4 -7.6 0z"/>
  <path d="M236.2 149.3 c-1.5 -4.8 -0.8 -5.5 0.8 -0.8 0.7 2 1 3.8 0.8 4.1 -0.3 0.2 -1 -1.3 -1.6 -3.3z"/>
  <path d="M244.4 148.5 c2.3 -2 5.4 -3.7 7.5 -4.1 2 -0.3 4.8 -0.8 6.3 -1 3.4 -0.7 20.8 2.5 22.8 4.1 2.9 2.3 3.8 2.5 3.6 0.7 -0.1 -2 4 -3 5.7 -1.3 0.8 0.8 0.3 1.1 -1.6 1.1 -1.8 0 -2.7 0.5 -2.7 1.6 0 1.9 -5.3 1.6 -16.5 -1.1 -9 -2.1 -19.1 -1.3 -20 1.6 -0.5 1.5 -1.6 1.9 -4.8 1.9 l-4.2 0 3.9 -3.5z"/>
  <path d="M126 148 c0 -1.1 0.6 -2 1.4 -2 0.7 0 1.6 0.9 1.9 2 0.4 1.5 0 2 -1.4 2 -1.2 0 -1.9 -0.7 -1.9 -2z"/>
  <path d="M302.4 146 c2.7 -1.1 5.4 -1.9 6 -1.7 1.7 0.6 -2.5 2.4 -6.9 3.1 l-4 0.7 4.9 -2.1z"/>
  <path d="M230.9 134.6 c-1.8 -5.3 -3.8 -9.7 -4.4 -9.9 -0.5 -0.2 -0.4 -0.3 0.4 -0.3 1.4 0.1 8.7 18.3 7.8 19.3 -0.3 0.2 -1.9 -3.9 -3.8 -9.1z"/>
  <path d="M289.2 141 c0 -1.9 0.2 -2.7 0.5 -1.7 0.2 0.9 0.2 2.5 0 3.5 -0.3 0.9 -0.5 0.1 -0.5 -1.8z"/>
  <path d="M288.8 133.4 c-0.5 -0.4 -0.8 -2.3 -0.8 -4.3 0.1 -3 0.2 -3.3 1.1 -1.8 1.1 1.9 0.8 7.3 -0.3 6.1z"/>
  <path d="M258.1 115.4 c-0.6 -1.4 -0.9 -3 -0.5 -3.5 0.3 -0.5 -0.1 -1.2 -1 -1.5 -0.8 -0.3 -1.7 -1.2 -2 -2 -0.4 -1 -0.2 -1.3 0.7 -0.8 0.6 0.4 0.2 -0.3 -1.1 -1.5 -2.4 -2.4 -2.1 -4.1 0.7 -4.1 1 0 2.5 1.7 3.9 4.5 2.4 5 5.2 6 5.2 2 0 -1.4 0.5 -2.5 1 -2.5 0.6 0 1 -0.7 1 -1.5 0 -0.9 0.9 -1.5 2.5 -1.5 2.9 0 3.2 0.7 0.8 2.7 -1 0.8 -1.2 1.1 -0.4 0.8 0.9 -0.5 0.8 0.1 -0.4 1.9 -1 1.4 -2.2 2.6 -2.7 2.6 -0.5 0 -0.7 0.4 -0.3 1 0.3 0.5 -0.3 1.8 -1.4 2.9 -1.1 1.1 -1.7 2.2 -1.3 2.5 0.3 0.3 -0.4 0.6 -1.5 0.6 -1.2 0 -2.5 -1.1 -3.2 -2.6z"/>
  <path d="M47 57.1 c4.9 -0.5 6.5 -1 6.5 -2.1 0 -0.8 0.9 -1.5 2 -1.5 1.3 0 2 0.6 1.9 1.8 -0.1 1 0.5 1.7 1.6 1.7 1.1 0 1.7 -0.7 1.6 -1.7 -0.1 -1.2 0.6 -1.8 1.9 -1.8 1.3 0 2 0.6 1.9 1.8 -0.1 1 0.5 1.7 1.6 1.7 1.3 0 1.7 -0.5 1.3 -2.1 -0.5 -1.7 -0.2 -2 1.8 -1.7 1.6 0.2 2.3 0.9 2.1 2.1 -0.3 1.6 2.3 1.7 41.7 1.7 39.1 0 42 -0.1 42.4 -1.8 0.4 -1.3 0.5 -1.1 0.6 0.6 l0.1 2.2 -57.7 -0.2 c-31.8 -0.1 -54.9 -0.4 -51.3 -0.7z"/>
 </g>
 <g fill="#c3986a">
  <path d="M67 324 c-2.4 -1.5 -0.7 -1.8 2.5 -0.4 2.3 1 2.5 1.3 1 1.3 -1.1 0.1 -2.7 -0.3 -3.5 -0.9z"/>
  <path d="M78.4 323.6 c2.7 -2.2 1.3 -4.4 -3.1 -5.1 -5.5 -1 -6.5 -1.6 -1.6 -1.1 2.2 0.2 4.5 0 5.1 -0.6 0.5 -0.5 3.3 -0.7 6.3 -0.5 l5.4 0.3 -5.8 0.2 -5.8 0.2 1.7 2.3 c1.4 1.8 2.5 2.2 5.3 1.9 2 -0.3 4.7 -1.2 6.1 -2.2 2.6 -1.7 6 -3.2 6 -2.6 0 0.2 -1.6 1.3 -3.5 2.5 -4.1 2.4 -4.4 3.8 -1.2 5.1 1.9 0.8 2 0.9 0.3 0.9 -1.1 0.1 -2.7 -0.5 -3.5 -1.3 -1.6 -1.4 -6.2 -1.1 -11.6 0.9 -1.9 0.6 -1.9 0.6 -0.1 -0.9z"/>
  <path d="M97.1 324.7 c0.8 -0.9 16.8 -3.9 18.2 -3.4 0.7 0.2 -1.3 0.9 -4.3 1.6 -7.4 1.6 -14.6 2.5 -13.9 1.8z"/>
  <path d="M196.8 324.3 c6.1 -0.2 11.2 -0.7 11.2 -1.2 0 -0.5 1.3 -1.4 3 -2.1 1.6 -0.7 2.7 -1.7 2.3 -2.3 -0.3 -0.6 -0.1 -0.7 0.6 -0.3 0.7 0.4 1.5 -0.2 2.1 -1.6 l1 -2.3 -0.3 2.5 c-0.1 1.7 -1.4 3.1 -4.1 4.6 -2.4 1.4 -3.3 2.4 -2.5 2.7 0.8 0.3 -4.4 0.5 -11.6 0.4 l-13 -0.1 11.3 -0.3z"/>
  <path d="M226.3 324.3 c3.7 -0.2 9.6 -0.2 13 0 3.4 0.2 0.4 0.3 -6.8 0.3 -7.1 0 -9.9 -0.1 -6.2 -0.3z"/>
  <path d="M47.2 317.4 c0.1 -0.9 0.9 -1.9 1.6 -2.2 0.9 -0.3 1.3 0.2 1 1.4 -0.1 0.9 -0.9 1.9 -1.6 2.2 -0.9 0.3 -1.3 -0.2 -1 -1.4z"/>
  <path d="M190.5 316.3 c-2.7 -1.6 -2.8 -1.8 -0.9 -2.1 2.3 -0.3 8.4 -5.5 8.4 -7.2 0 -0.6 -0.7 -1.3 -1.5 -1.6 -2.9 -1.2 -1.4 -2.4 2.8 -2.3 7.8 0.1 13.2 1.3 13.2 2.9 0 0.8 -0.7 1.4 -1.7 1.2 -2.1 -0.3 -1.4 3.2 1.4 6.7 1 1.3 1.6 2.7 1.2 3 -0.3 0.3 -1 -0.2 -1.5 -1.2 -0.9 -1.6 -1.2 -1.6 -3.4 -0.1 -3.8 2.5 -14.3 2.9 -18 0.7z"/>
  <path d="M227.2 316.4 c-1.2 -0.8 -2.7 -1.2 -3.2 -0.9 -0.6 0.3 -1 0.1 -1 -0.4 0 -0.6 1.1 -1.1 2.4 -1.1 1.4 0 4 -1.5 6.3 -3.6 3.5 -3.3 3.6 -3.7 2 -4.9 -3.1 -2.2 -1.8 -2.8 5.8 -2.3 7.2 0.5 10.5 1.5 7.8 2.5 -0.7 0.3 -1.3 1.8 -1.3 3.5 0 2.5 0.3 2.9 2 2.5 1.6 -0.4 2 0 2 1.8 0 2.8 -1.5 4.1 -2.3 2.1 -0.5 -1.2 -1.2 -1.1 -4.4 0.5 -4.6 2.3 -13 2.5 -16.1 0.3z"/>
  <path d="M100.5 315.4 c0.8 -0.6 1.5 -2.2 1.5 -3.6 0 -1.3 0.7 -3.3 1.5 -4.4 1.4 -1.8 1.4 -1.7 0.5 0.9 -1.4 3.8 -1.3 4.4 0.8 6.5 1.7 1.7 1.6 1.8 -2 1.7 -3 0 -3.5 -0.2 -2.3 -1.1z"/>
  <path d="M66.8 313.4 c-0.2 -0.5 0.9 -2.2 2.4 -3.8 1.5 -1.6 2.8 -2.5 2.8 -2 -0.1 1.5 -4.7 6.7 -5.2 5.8z"/>
  <path d="M80.8 312.9 c-2.9 -1.6 -2.1 -2.9 1.7 -2.9 2.4 0 3.5 0.5 3.5 1.4 0 0.9 1.3 1.6 3.3 1.9 2.3 0.3 1.7 0.4 -1.8 0.5 -2.7 0.1 -5.8 -0.3 -6.7 -0.9z"/>
  <path d="M73 304.4 c-1.6 -5.2 -1 -9.8 1.3 -10.2 1.5 -0.3 1.7 0.5 1.7 5.5 0 7.8 -1.4 9.9 -3 4.7z"/>
  <path d="M91 305 c0 -2.5 -0.4 -3 -2.5 -3 -2 0 -2.5 -0.5 -2.5 -2.5 0 -3.4 1.7 -3.1 5.6 1.1 3.9 4 4.5 7.4 1.4 7.4 -1.6 0 -2 -0.7 -2 -3z"/>
  <path d="M63.1 304.6 c0.2 -0.2 1.5 -0.9 2.9 -1.6 2.3 -1.2 2.4 -1.2 1.1 0.3 -0.7 1 -2 1.7 -2.9 1.7 -0.8 0 -1.3 -0.2 -1.1 -0.4z"/>
  <path d="M225.7 172.7 c-0.4 -1 -0.7 -4.8 -0.7 -8.3 l0 -6.4 8.2 0 c7.6 0 8 -0.1 6.2 -1.6 -1.8 -1.4 -1.8 -1.5 0.5 -0.3 1.8 0.9 4.1 0.8 9.8 -0.1 4.1 -0.6 7.7 -0.9 8 -0.7 1.7 1.7 -11.4 6.4 -14.5 5.2 -0.8 -0.3 -4.2 1.6 -7.8 4.2 -5.5 4 -6.3 5 -5.9 7.2 l0.5 2.6 -1.1 -2.5 -1.2 -2.5 -0.6 2.5 c-0.6 2.2 -0.8 2.3 -1.4 0.7z"/>
  <path d="M285.2 164.8 c-0.1 -1 -1.1 -2.2 -2.2 -2.8 -1.7 -0.9 -2 -0.8 -2 1 0 1.1 -0.5 2 -1.1 2 -0.7 0 -0.9 -1 -0.7 -2.4 0.4 -1.9 -0.2 -2.7 -3.6 -4.3 -9.8 -4.9 -12.2 -5.5 -22.8 -6.1 -6 -0.2 -10.8 -0.9 -10.8 -1.3 0 -0.5 0.4 -0.9 1 -0.9 0.5 0 2 -1.2 3.3 -2.6 2 -2.1 3.5 -2.6 9.9 -3.1 8.7 -0.7 19.4 1 25 3.8 2.4 1.2 3.7 1.5 3.6 0.7 -0.2 -0.6 0.6 -1.3 1.7 -1.5 1.3 -0.3 1.6 -0.1 0.8 0.4 -0.8 0.5 -1.3 4.3 -1.6 9.8 -0.1 5 -0.4 8.2 -0.5 7.3z"/>
  <path d="M108.3 151 c-0.3 -1.1 -1.2 -2 -1.9 -2 -0.8 0 -1.4 -0.7 -1.4 -1.5 0 -1.2 1.4 -1.5 7 -1.5 5.6 0 7 0.3 7 1.5 0 0.8 -0.7 1.5 -1.5 1.5 -0.8 0 -1.9 0.9 -2.5 2 -0.6 1.2 -2.1 2 -3.6 2 -1.7 0 -2.8 -0.7 -3.1 -2z"/>
  <path d="M258.1 115 c-0.5 -1.6 -0.7 -3 -0.4 -3 0.3 0 -0.1 -0.8 -1 -1.8 -1 -1 -1.5 -2.1 -1.2 -2.4 0.3 -0.3 -0.1 -1.1 -1 -1.8 -1.9 -1.6 -1.9 -4 0 -4 2.1 0 3 -2.7 1.5 -4.5 -1.1 -1.3 -0.8 -1.5 1.6 -1.6 2.7 -0.1 2.6 -0.2 -0.6 -0.8 -2 -0.4 -4.1 -1.1 -4.8 -1.5 -2.4 -1.5 -5.2 -8.5 -5.2 -13.2 0 -3.7 0.4 -4.7 2 -5.1 2.3 -0.6 2.6 -1.9 0.8 -2.6 -0.7 -0.3 2.2 -0.6 6.5 -0.6 4.7 -0.1 7.7 -0.5 7.7 -1.2 0 -0.6 1.6 -0.9 3.7 -0.7 3.5 0.3 3.7 0.5 5 5.3 0.7 3.1 0.9 5.1 0.3 5.3 -1.5 0.5 -1.2 3.2 0.3 3.2 0.7 0 1.4 1.3 1.5 3 0.1 1.7 -0.2 3 -0.7 3 -0.4 0 -2.5 1.5 -4.5 3.3 -4.3 4 -4.7 7.2 -1.1 8.9 2.9 1.3 3.2 2.3 0.9 3.2 -0.8 0.3 -1.3 1 -1 1.4 0.3 0.5 -0.4 1.9 -1.5 3 -1.1 1.2 -1.6 2.2 -1.2 2.2 0.4 0 -0.1 0.7 -1.1 1.5 -1.1 0.8 -1.6 1.5 -1.2 1.5 0.4 0 0.1 0.7 -0.8 1.5 -2.2 2.2 -3.3 1.8 -4.5 -1.5z m-3.6 -32.1 c0 -1.7 -4.7 -1.9 -5.2 -0.2 -0.2 0.6 0.4 1.3 1.4 1.6 2.6 0.7 3.8 0.2 3.8 -1.4z m12.4 0.8 c1.3 -1.6 0.5 -2.7 -2 -2.7 -2.4 0 -3.5 2 -1.8 3.1 1.9 1.2 2.5 1.1 3.8 -0.4z"/>
 </g>
 <g fill="#ec7067">
  <path d="M181.8 373.3 c1.2 -0.2 3 -0.2 4 0 0.9 0.3 -0.1 0.5 -2.3 0.4 -2.2 0 -3 -0.2 -1.7 -0.4z"/>
  <path d="M233.8 373.3 c1.2 -0.2 3 -0.2 4 0 0.9 0.3 -0.1 0.5 -2.3 0.4 -2.2 0 -3 -0.2 -1.7 -0.4z"/>
  <path d="M146.8 371.3 c1.2 -0.2 3.2 -0.2 4.5 0 1.2 0.2 0.2 0.4 -2.3 0.4 -2.5 0 -3.5 -0.2 -2.2 -0.4z"/>
  <path d="M267.8 371.3 c1.2 -0.2 3.2 -0.2 4.5 0 1.2 0.2 0.2 0.4 -2.3 0.4 -2.5 0 -3.5 -0.2 -2.2 -0.4z"/>
  <path d="M236.1 362.5 c1.3 -1.3 2.5 -1.5 4.8 -1 1.7 0.4 3.1 1.1 3.1 1.7 0 0.6 -0.7 0.7 -1.7 0.3 -2.3 -0.9 -3.3 -0.9 -5.8 0 -1.9 0.7 -1.9 0.7 -0.4 -1z"/>
  <path d="M313 358.4 c1.5 -1.8 7.1 -1.5 7.8 0.4 0.3 0.9 -0.2 1 -2 0.3 -1.5 -0.5 -3 -0.6 -3.9 0 -2.2 1.4 -3.3 1 -1.9 -0.7z"/>
  <path d="M148 357.4 c1.5 -1.8 7.1 -1.5 7.8 0.4 0.3 0.9 -0.3 1 -2.4 0.2 -1.9 -0.8 -3 -0.8 -3.8 0 -1.6 1.6 -3 1.2 -1.6 -0.6z"/>
  <path d="M63 345.7 c0 -0.8 0.8 -1.7 1.8 -1.9 2.2 -0.6 6.2 0.8 6.2 2.1 0 0.7 -0.9 0.7 -2.6 0.1 -1.9 -0.7 -3.1 -0.7 -4 0.1 -1.1 0.9 -1.4 0.8 -1.4 -0.4z"/>
  <path d="M318 342.9 c0 -1.2 3.1 -1.9 5.6 -1.3 3.7 0.9 2.9 1.9 -1.6 1.9 -2.2 0 -4 -0.3 -4 -0.6z"/>
  <path d="M105 341.2 c0 -1.8 3.3 -3 5.8 -2.1 1.2 0.5 2.2 1.3 2.2 1.8 0 0.7 -0.9 0.7 -2.6 0.1 -1.9 -0.7 -3.1 -0.7 -4 0.1 -1 0.8 -1.4 0.8 -1.4 0.1z"/>
  <path d="M281 334.5 c1.4 -1.7 4.8 -1.9 7 -0.5 2.1 1.3 0.5 2.4 -1.7 1.2 -1.2 -0.7 -2.5 -0.7 -3.4 -0.1 -2.2 1.4 -3.3 1.1 -1.9 -0.6z"/>
  <path d="M67 324 c-1.1 -0.8 -0.7 -0.9 1.5 -0.4 3.7 0.8 4.5 1.4 1.9 1.4 -1 0 -2.6 -0.5 -3.4 -1z"/>
  <path d="M77 323.7 c2.6 -0.9 3.4 -1.8 3.2 -3.2 -0.2 -1.8 -0.2 -1.9 0.8 -0.2 1.3 2.1 4.5 2.2 8.4 0.2 3.8 -2 4.3 -1.9 2.1 0.5 -1.4 1.6 -1.5 2 -0.4 2.4 4.2 1.3 4.4 1.4 2.5 1.5 -1.1 0.1 -2.7 -0.5 -3.5 -1.3 -1.3 -1.1 -2.6 -1.2 -6.1 -0.5 -2.5 0.6 -5.8 1.2 -7.5 1.5 -2.8 0.4 -2.8 0.4 0.5 -0.9z"/>
  <path d="M102 323.5 c9.7 -1.9 14.5 -2.7 13.9 -2.1 -0.9 0.9 -14.8 3.6 -17.7 3.5 -1.5 -0.1 0.2 -0.7 3.8 -1.4z"/>
  <path d="M265.7 322.2 c-2.5 -2.7 -2.1 -6.7 0.8 -9 1.4 -1.1 2.5 -2.5 2.5 -3.1 0 -0.6 0.5 -1.1 1.1 -1.1 0.6 0 0.9 0.7 0.5 1.5 -0.3 0.8 -0.1 1.5 0.4 1.5 1.7 0 5 3.9 5 6 0 2.7 -3.5 6 -6.3 6 -1.3 0 -3.1 -0.8 -4 -1.8z m4.8 -4.2 c0 -0.7 -0.6 -1.5 -1.2 -1.7 -0.8 -0.3 -1.3 0.4 -1.3 1.7 0 1.3 0.5 2 1.3 1.8 0.6 -0.3 1.2 -1.1 1.2 -1.8z"/>
  <path d="M289 321.8 c-2.4 -2.6 -2.6 -5.1 -0.4 -6.9 1.4 -1.1 1.3 -1.5 -0.8 -3.1 l-2.3 -1.8 2.8 1 c1.6 0.5 3.9 1 5.1 1 4.7 0 7.4 5.7 4.5 9.4 -2.5 3.2 -6.1 3.3 -8.9 0.4z m7 -3.8 c0 -1.5 -0.7 -2 -2.5 -2 -4.1 0 -3 3.7 1.3 3.9 0.6 0.1 1.2 -0.8 1.2 -1.9z"/>
  <path d="M212 321.2 c0 -0.4 0.9 -1.3 2 -2 1.6 -1 2 -2.3 2 -6.7 0 -3 0.5 -5.5 1 -5.5 0.6 0 1 2.2 1 5 l0 5 3.5 -1.7 c2.9 -1.4 3.7 -1.5 4.8 -0.3 0.9 1 0.9 1.1 -0.1 0.6 -0.7 -0.4 -4 0.8 -7.7 2.8 -3.6 2 -6.5 3.2 -6.5 2.8z"/>
  <path d="M249.6 320.5 c0.3 -0.8 -0.4 -2.8 -1.5 -4.4 l-2.1 -2.9 4.5 -2.7 c2.5 -1.4 5.1 -2.5 5.7 -2.3 0.5 0.2 -0.6 1.2 -2.6 2.3 -3.8 2 -4.4 3.3 -2.5 5.2 1.3 1.3 0.4 6.3 -1.1 6.3 -0.5 0 -0.7 -0.7 -0.4 -1.5z"/>
  <path d="M211.6 315.4 c-0.3 -0.8 -1 -1.2 -1.6 -0.9 -0.6 0.3 -0.7 -0.1 -0.4 -0.9 0.3 -0.9 1 -1.3 1.5 -1 1.4 0.8 3.1 4.4 2 4.4 -0.5 0 -1.2 -0.7 -1.5 -1.6z"/>
  <path d="M168.7 307.3 c1.8 -0.2 5 -0.2 7 0 2.1 0.2 0.7 0.4 -3.2 0.4 -3.8 0 -5.5 -0.2 -3.8 -0.4z"/>
  <path d="M52 185 c0 -1.8 3.9 -3 9.9 -3 3.4 0 6.1 -0.3 6.1 -0.6 0 -0.4 2 -10.8 4.5 -23.3 7.2 -36.9 7.9 -41.1 6.6 -42.4 -2.8 -2.8 -0.2 -9.7 3.7 -9.7 2.4 0 3.7 1.1 5.5 4.5 1.5 3 18.4 16.5 20.5 16.5 0.7 0 1.9 1.1 2.7 2.4 0.9 1.3 2.9 2.6 4.6 3 6.1 1.2 12.9 9.1 12.9 15 l0 2.9 -6.1 -0.7 c-3.4 -0.3 -11.8 -0.6 -18.6 -0.6 l-12.5 0 0.7 -3.2 c1 -4.9 5.6 -11.1 9.8 -13.1 2 -1 3.7 -2.3 3.7 -2.8 0 -0.7 -6.8 -6.2 -17 -13.7 -1.5 -1.1 -2.2 -1.1 -3.9 0 -1.2 0.7 -2.3 2 -2.6 2.8 -0.9 3.1 -12.5 62.3 -12.3 62.5 0.2 0.2 3.6 0.7 7.7 1.1 13.1 1.6 9.3 2.9 -8.9 3.1 -10 0.1 -17 -0.1 -17 -0.7z"/>
 </g>
 <g fill="#5e7294">
  <path d="M256 246.6 c0 -1.3 0.3 -4.4 0.6 -7 0.5 -3.7 1.1 -4.6 2.6 -4.6 1.8 0 2 0.5 1.3 4.8 -1 7.5 -1.6 9.2 -3.1 9.2 -0.8 0 -1.4 -1 -1.4 -2.4z"/>
  <path d="M231 240.8 c0 -3.9 1.2 -6.8 2.6 -6.8 1 0 1.4 1.3 1.4 4.5 0 3.8 -0.3 4.5 -2 4.5 -1.4 0 -2 -0.7 -2 -2.2z"/>
  <path d="M267.8 236.3 c-1 -0.2 -1.8 -1.1 -1.8 -1.9 0 -1.1 1.5 -1.4 6 -1.4 4.4 0 6 0.4 6 1.4 0 2.1 -5.5 3.2 -10.2 1.9z"/>
  <path d="M226 174 c-0.6 -2.3 -0.9 -4.9 -0.7 -5.8 0.2 -0.9 0.7 0.4 1.1 3.1 1 5.7 3.1 7.7 2.4 2.3 -0.2 -2 -0.1 -3.3 0.3 -2.8 0.4 0.4 0.9 2 1.1 3.7 0.2 2.1 -0.2 3 -1.4 3.3 -1.2 0.2 -2 -0.8 -2.8 -3.8z"/>
  <path d="M280.4 167.5 c-1.6 -4 -1.8 -6.5 -0.5 -6.5 0.6 0 1.1 1.7 1.3 3.7 0.4 4.7 2.4 5.4 3.7 1.1 l1.1 -3.3 -0.5 3.7 c-0.5 2.9 -0.2 3.7 1.2 4.1 1 0.3 0.3 0.5 -1.5 0.6 -2.9 0.1 -3.5 -0.4 -4.8 -3.4z"/>
  <path d="M135.1 159.8 c0.1 -1.7 0.2 -1.9 0.6 -0.5 0.4 1.5 2.3 1.7 20.8 1.7 18.5 0 20.4 -0.2 20.8 -1.7 0.4 -1.4 0.5 -1.2 0.6 0.5 l0.1 2.2 -21.5 0 -21.5 0 0.1 -2.2z"/>
  <path d="M242.5 160.1 c-0.4 -0.7 1 -1.1 4 -1.1 2.6 0 5.5 -0.5 6.6 -1 1 -0.6 1.9 -0.8 1.9 -0.6 0 2 -11.4 4.4 -12.5 2.7z"/>
  <path d="M284.9 150.7 c-0.7 -3 0.8 -4.4 3.3 -3.4 0.8 0.4 0.7 0.6 -0.4 0.6 -1 0.1 -1.8 1.1 -2 2.9 l-0.3 2.7 -0.6 -2.8z"/>
  <path d="M245.8 147.9 c2 -2 4.1 -2.9 7.7 -3.3 4.8 -0.6 4.9 -0.5 2.1 0.8 -2 0.9 -2.5 1.5 -1.5 1.9 0.9 0.3 0.6 0.6 -0.8 0.6 -1.2 0.1 -2.8 0.7 -3.5 1.4 -0.7 0.6 -2.5 1.2 -4 1.3 l-2.8 0.1 2.8 -2.8z"/>
  <path d="M122.8 149.3 c1.2 -0.2 3.2 -0.2 4.5 0 1.2 0.2 0.2 0.4 -2.3 0.4 -2.5 0 -3.5 -0.2 -2.2 -0.4z"/>
  <path d="M268.5 145.5 l-6 -1.4 5.5 0.6 c3 0.3 6.4 0.9 7.5 1.4 2.9 1.1 -0.1 0.9 -7 -0.6z"/>
  <path d="M301.1 146.6 c0.2 -0.1 2 -0.8 3.9 -1.4 3.2 -1.1 3.3 -1 1.6 0.3 -1.6 1.2 -6.9 2.3 -5.5 1.1z"/>
  <path d="M149.3 143.3 c8.2 -0.2 21.2 -0.2 29 0 7.8 0.1 1.2 0.3 -14.8 0.3 -15.9 0 -22.3 -0.2 -14.2 -0.3z"/>
  <path d="M288.5 131 c-0.4 -1.7 -0.5 -3.4 -0.2 -3.6 0.3 -0.3 0.8 0.9 1.2 2.6 0.4 1.7 0.5 3.4 0.2 3.6 -0.3 0.3 -0.8 -0.9 -1.2 -2.6z"/>
  <path d="M229.1 129.9 c-0.6 -1.8 -0.9 -3.4 -0.7 -3.6 0.2 -0.2 0.9 1 1.5 2.8 0.6 1.8 0.9 3.4 0.7 3.6 -0.2 0.2 -0.9 -1 -1.5 -2.8z"/>
  <path d="M258.1 114.8 c-1 -3 -0.9 -3.1 0.4 -1.3 0.8 1.1 1.9 2.6 2.5 3.3 0.8 0.9 0.7 1.2 -0.4 1.2 -0.8 0 -1.9 -1.5 -2.5 -3.2z"/>
  <path d="M155.2 55 c0 -1.9 0.2 -2.7 0.5 -1.7 0.2 0.9 0.2 2.5 0 3.5 -0.3 0.9 -0.5 0.1 -0.5 -1.8z"/>
  <path d="M54.3 55.5 c-0.7 -2 0.2 -2.9 2.1 -2.2 0.9 0.4 1.3 1.3 1 2.2 -0.8 1.9 -2.3 1.9 -3.1 0z"/>
  <path d="M60.5 56.1 c-0.8 -1.5 0.3 -3.1 2.1 -3.1 0.9 0 1.4 0.7 1.2 1.7 -0.4 2 -2.4 2.8 -3.3 1.4z"/>
  <path d="M67.5 56.1 c-0.8 -1.5 0.3 -3.1 2.1 -3.1 0.9 0 1.4 0.7 1.2 1.7 -0.4 2 -2.4 2.8 -3.3 1.4z"/>
 </g>
 <g fill="#5a806c">
  <path d="M208 323.3 c0 -0.5 2 -1.9 4.5 -3.1 2.8 -1.3 4.5 -2.8 4.5 -3.9 0 -1.4 0.2 -1.5 0.9 -0.4 0.5 0.8 1.4 1 2.2 0.6 1 -0.5 1.1 -0.5 0.4 0.2 -1.8 1.9 -12.5 7.5 -12.5 6.6z"/>
  <path d="M249.6 320.6 c0.3 -0.8 -0.2 -2.5 -1.1 -3.9 l-1.6 -2.5 -3.6 1.9 c-2.1 1.1 -4.9 1.9 -6.3 1.8 -1.7 -0.1 -1 -0.5 2.3 -1.4 2.7 -0.7 5.6 -2 6.5 -2.8 0.9 -0.8 2.6 -1.7 3.6 -2.1 1.5 -0.5 1.7 -0.4 0.7 0.8 -0.8 1 -0.9 1.6 -0.1 2.1 1.3 0.8 1.3 6.2 0 7 -0.5 0.3 -0.7 0 -0.4 -0.9z"/>
  <path d="M191.3 316.8 c-1.3 -0.6 -2.3 -1.5 -2.3 -2.1 0 -0.5 0.6 -0.4 1.4 0.2 0.8 0.7 2.7 1.6 4.3 2.1 1.9 0.6 2.2 0.8 0.8 0.8 -1.1 0.1 -3 -0.4 -4.2 -1z"/>
  <path d="M199.5 317.4 c5 -1.2 10.5 -3.7 10.5 -4.5 0 -0.6 0.5 -0.7 1 -0.4 1.2 0.7 1.4 2.6 0.3 2.3 -0.5 -0.1 -1.8 0.3 -2.9 1 -1.2 0.6 -4.1 1.4 -6.5 1.6 -2.4 0.3 -3.5 0.3 -2.4 0z"/>
  <path d="M226.5 315.9 c-1.6 -1.2 -2.1 -1.8 -1 -1.4 9 3.4 9.1 3.4 6.5 3.4 -1.4 0.1 -3.8 -0.9 -5.5 -2z"/>
  <path d="M38.2 207.3 c0.3 -1.6 1.7 -1.8 13.3 -1.8 11.6 0 13 0.2 13.3 1.8 0.3 1.5 -0.8 1.7 -13.3 1.7 -12.5 0 -13.6 -0.2 -13.3 -1.7z"/>
 </g>
 <g fill="#53627b">
  <path d="M203.1 306.4 c-4.5 -0.7 -8.5 -1.5 -8.8 -1.8 -0.5 -0.5 0 -7.5 3.2 -50.6 0.8 -10.2 1.7 -23.1 2.1 -28.8 0.7 -11.1 2.1 -14.4 7.7 -18.6 2.3 -1.7 4.6 -2.2 12.3 -2.4 l9.4 -0.4 0 -2.8 c0 -1.5 0.3 -4.2 0.6 -5.9 l0.7 -3.1 32.3 0 32.3 0 1 5.3 c4.7 23.4 3.4 30.9 -6.1 35.8 -3.7 1.9 -6 2.2 -16.5 2.3 -12.2 0.1 -12.2 0.1 -12.7 2.6 -1.3 6.5 -3.8 21.6 -7.2 43 -2 12.9 -4 23.9 -4.5 24.4 -1 1.2 -13.2 0.8 -16.5 -0.5 l-2.6 -0.9 0.7 -12.8 c0.3 -7 0.8 -22.7 0.9 -34.9 0.3 -20.9 0.2 -22.3 -1.5 -22.3 -2.3 0 -2.9 1.1 -3.9 7.3 -0.5 2.9 -2.9 15.1 -5.4 27.2 -2.6 12.1 -5.4 25.6 -6.2 30 -0.9 4.4 -1.9 8.2 -2.2 8.6 -0.4 0.3 -4.5 -0.1 -9.1 -0.7z"/>
  <path d="M34.4 173.5 c0 -7.1 0.1 -9.9 0.3 -6.2 0.2 3.7 0.2 9.6 0 13 -0.2 3.4 -0.3 0.4 -0.3 -6.8z"/>
  <path d="M281.6 169.1 c-1 -1.1 -1.6 -2.6 -1.3 -3.3 0.4 -0.9 0.6 -0.8 0.6 0.3 0.1 2.2 3.1 4.8 3.1 2.8 0 -1 0.2 -1.1 0.8 -0.2 0.4 0.6 2.8 1.3 5.2 1.6 4.3 0.3 4.3 0.4 -1.1 0.5 -4.4 0.2 -6 -0.2 -7.3 -1.7z"/>
  <path d="M285.3 158 c0 -4.7 0.2 -6.6 0.4 -4.2 0.2 2.3 0.2 6.1 0 8.5 -0.2 2.3 -0.4 0.4 -0.4 -4.3z"/>
  <path d="M135 157 l0 -5 21.5 0 21.5 0 0 5 c0 2.8 -0.3 5 -0.8 5 -0.4 0 -0.6 -2 -0.4 -4.5 l0.4 -4.5 -20.7 0 -20.7 0 0.4 4.5 c0.2 2.5 0 4.5 -0.4 4.5 -0.5 0 -0.8 -2.2 -0.8 -5z"/>
  <path d="M252.1 158.7 c0.2 -0.2 1.8 -1.1 3.4 -2.1 l3 -1.7 -2.4 2 c-1.3 1.2 -2.8 2.1 -3.4 2.1 -0.6 0 -0.8 -0.1 -0.6 -0.3z"/>
  <path d="M265.6 153.8 c-1 -0.6 -6.8 -1.3 -12.7 -1.6 -6 -0.3 -10.9 -0.9 -10.9 -1.4 0 -0.6 0.8 -0.7 1.7 -0.4 1 0.4 1.4 0.4 1.1 0 -1 -0.9 4.2 -5.4 6.2 -5.4 1 0 3.3 -0.2 5.1 -0.5 l3.4 -0.5 -3.5 1.4 c-1.9 0.8 -2.8 1.5 -2 1.6 0.8 0.1 -0.7 0.9 -3.5 1.8 l-5 1.6 9 0.6 c5.3 0.4 10.2 1.3 12 2.3 1.7 0.9 2.6 1.6 2 1.6 -0.5 0 -1.8 -0.5 -2.9 -1.1z"/>
  <path d="M285 147.8 c0 -0.4 1.4 -0.8 3 -0.8 1.7 0 3 0.2 3 0.4 0 0.2 -1.3 0.6 -3 0.8 -1.6 0.3 -3 0.1 -3 -0.4z"/>
  <path d="M276 147 c-2.1 -0.7 -2.1 -0.8 -0.5 -0.9 1.1 0 2.7 0.4 3.5 0.9 1.8 1.1 0.5 1.1 -3 0z"/>
  <path d="M99.8 134.3 c1.3 -1.3 2.8 -2.3 3.5 -2.3 0.7 0 0.3 0.6 -0.8 1.2 -1.1 0.6 -2.7 1.6 -3.5 2.2 -0.9 0.6 -0.5 0.1 0.8 -1.1z"/>
  <path d="M106.8 132.6 c-1.6 -1.1 -1.6 -1.5 -0.3 -3.2 1.3 -1.6 1.4 -1.7 0.9 -0.1 -0.3 0.9 -0.1 2.4 0.6 3.2 1.5 1.8 1.1 1.9 -1.2 0.1z"/>
  <path d="M186.8 124.3 c1.2 -0.2 3 -0.2 4 0 0.9 0.3 -0.1 0.5 -2.3 0.4 -2.2 0 -3 -0.2 -1.7 -0.4z"/>
  <path d="M79.8 115.9 c-1 -0.5 -1.8 -1.5 -1.8 -2.1 0 -0.6 0.9 -0.3 2 0.7 1.1 1 2.8 1.5 4 1.2 1.1 -0.3 1.8 -0.1 1.4 0.4 -0.7 1.2 -3.5 1.1 -5.6 -0.2z"/>
  <path d="M272.5 87 c0.3 -0.5 -0.2 -2.1 -1.1 -3.5 -1 -1.5 -1.2 -2.5 -0.5 -2.5 0.6 0 1.1 0.7 1.1 1.5 0 2.1 2.8 1.9 3.3 -0.2 0.3 -1 0.5 -0.1 0.6 2 0.1 3.1 -0.2 3.7 -2 3.7 -1.1 0 -1.7 -0.4 -1.4 -1z"/>
 </g>
 <g fill="#3a5648">
  <path d="M209 322.5 c0 -0.2 1.8 -1.4 4 -2.5 2.8 -1.4 4 -2.7 4.1 -4.3 0.1 -1.7 0.2 -1.8 0.6 -0.4 0.5 2.1 0.7 2.1 4.4 0.2 2.6 -1.4 3.2 -1.4 5.7 -0.1 1.5 0.8 2.3 1.5 1.9 1.6 -0.5 0 -1.7 -0.5 -2.8 -1 -1.5 -0.9 -3.5 -0.3 -9.9 2.9 -4.4 2.3 -8 3.9 -8 3.6z"/>
  <path d="M249.1 316.6 c-0.9 -1.7 -2 -2.5 -2.9 -2.1 -1.2 0.4 -1.2 0.3 -0.3 -0.9 0.6 -0.7 2.1 -1.6 3.2 -1.9 1.5 -0.4 1.8 -0.2 1 0.7 -0.7 0.9 -0.7 1.6 0 2.3 0.6 0.6 0.9 1.9 0.7 2.8 -0.2 1.5 -0.6 1.3 -1.7 -0.9z"/>
  <path d="M195.8 317.3 c1.2 -0.2 3 -0.2 4 0 0.9 0.3 -0.1 0.5 -2.3 0.4 -2.2 0 -3 -0.2 -1.7 -0.4z"/>
  <path d="M232.8 317.3 c1.2 -0.2 3 -0.2 4 0 0.9 0.3 -0.1 0.5 -2.3 0.4 -2.2 0 -3 -0.2 -1.7 -0.4z"/>
  <path d="M206.3 315.3 c2 -0.8 3.7 -2 3.7 -2.7 0 -0.6 0.7 -0.2 1.5 0.8 0.8 1.1 1.5 2.5 1.5 3 0 0.6 -0.5 0.3 -1.1 -0.6 -0.9 -1.6 -1.3 -1.7 -3.9 -0.3 -1.6 0.8 -3.5 1.5 -4.2 1.4 -0.7 0 0.4 -0.7 2.5 -1.6z"/>
  <path d="M36.3 199.3 c8.7 -0.2 22.7 -0.2 31 0 8.4 0.1 1.3 0.3 -15.8 0.3 -17.1 0 -23.9 -0.2 -15.2 -0.3z"/>
 </g>
 <g fill="#313846">
  <path d="M231.9 236.5 c-0.2 -1.6 0.1 -7.5 0.8 -13 0.6 -5.5 1.2 -10.5 1.2 -11.2 0.2 -2.3 6.2 -8.2 9.4 -9.2 4.2 -1.2 28.7 -2.2 28.7 -1.1 0 0.5 -6.3 1 -13.9 1.2 -12.2 0.3 -14.3 0.6 -16.7 2.4 -5.5 4.1 -6.3 6.1 -7.7 20.4 -0.8 7.4 -1.6 12.2 -1.8 10.5z"/>
  <path d="M227.4 233.7 c0.3 -1 0.6 -3 0.6 -4.3 0 -1.3 0.4 -2.4 1 -2.4 1.2 0 0.1 6.1 -1.3 7.5 -0.7 0.7 -0.8 0.4 -0.3 -0.8z"/>
  <path d="M230.8 203.3 c1.2 -0.2 3 -0.2 4 0 0.9 0.3 -0.1 0.5 -2.3 0.4 -2.2 0 -3 -0.2 -1.7 -0.4z"/>
  <path d="M225.3 164 c0 -2.5 0.2 -3.5 0.4 -2.2 0.2 1.2 0.2 3.2 0 4.5 -0.2 1.2 -0.4 0.2 -0.4 -2.3z"/>
  <path d="M243 150.9 c0 -0.5 0.4 -0.8 0.8 -0.5 0.5 0.3 1.5 -0.5 2.2 -1.8 1.5 -2.9 3.3 -3.4 12.5 -4 3.9 -0.3 5.7 -0.3 4 0 -9.1 1.3 -9.9 1.6 -8.4 2.5 1.1 0.6 0.8 0.9 -1.1 1 -2.3 0 -2.4 0.1 -0.5 1 1.7 0.8 1.6 0.9 -0.7 0.6 -1.6 -0.3 -2.8 -0.1 -2.8 0.4 0 0.4 1.9 1 4.3 1.2 2.8 0.2 1.7 0.4 -3 0.5 -4.6 0.1 -7.3 -0.2 -7.3 -0.9z"/>
  <path d="M216.3 124.3 c2 -0.2 5.4 -0.2 7.5 0 2 0.2 0.3 0.4 -3.8 0.4 -4.1 0 -5.8 -0.2 -3.7 -0.4z"/>
  <path d="M258.5 114.8 c-1.3 -2.8 -1.4 -3 -0.1 -1.3 0.9 1.1 2 2.6 2.6 3.3 0.7 0.8 0.7 1.2 0.1 1.2 -0.6 0 -1.8 -1.5 -2.6 -3.2z"/>
  <path d="M271.8 89.5 c-0.9 -0.9 1.6 -5.5 3 -5.5 1.9 0 1.1 5.4 -0.8 5.8 -0.9 0.1 -1.9 0 -2.2 -0.3z"/>
 </g>
 <g fill="#37230f">
  <path d="M241.2 363 c-1.2 -0.5 -3 -0.7 -4 -0.4 -1.6 0.5 -1.6 0.5 0 -0.5 1.6 -1.1 6.8 0 6.8 1.4 0 0.6 0.1 0.6 -2.8 -0.5z"/>
  <path d="M314.6 357.7 c1 -0.5 2.4 -0.5 3.6 0 1.7 0.7 1.4 0.9 -1.6 0.9 -2.7 0 -3.2 -0.2 -2 -0.9z"/>
  <path d="M63.9 344.7 c0.5 -0.5 1.9 -0.7 3.2 -0.5 2 0.3 1.9 0.5 -0.9 0.9 -2 0.3 -2.9 0.2 -2.3 -0.4z"/>
  <path d="M319.3 342.7 c1.8 -1.5 5.2 -1.2 6.3 0.4 0.3 0.5 -0.5 0.5 -1.8 0 -1.5 -0.5 -3.2 -0.5 -4.4 0.1 -1.8 0.9 -1.8 0.9 -0.1 -0.5z"/>
  <path d="M105.7 339.8 c0.6 -1 4.5 -1 6 0 0.7 0.5 -0.4 0.8 -2.6 0.7 -2.2 0 -3.7 -0.3 -3.4 -0.7z"/>
  <path d="M286.2 335 c-1.2 -0.5 -3 -0.7 -4 -0.4 -1.6 0.5 -1.6 0.5 0 -0.5 1.6 -1.1 6.8 0 6.8 1.4 0 0.6 0.1 0.6 -2.8 -0.5z"/>
  <path d="M70.8 324.3 c1.2 -0.2 3.2 -0.2 4.5 0 1.2 0.2 0.2 0.4 -2.3 0.4 -2.5 0 -3.5 -0.2 -2.2 -0.4z"/>
  <path d="M93.8 324.3 c1.2 -0.2 3 -0.2 4 0 0.9 0.3 -0.1 0.5 -2.3 0.4 -2.2 0 -3 -0.2 -1.7 -0.4z"/>
  <path d="M79.5 322.7 c1.7 -1.3 1.7 -1.4 -0.4 -2.9 -3.2 -2.3 -0.5 -4 5.6 -3.5 l4.8 0.3 -5.2 0.2 c-2.9 0.1 -5.3 0.4 -5.3 0.7 0 0.3 0.9 1.6 2 2.8 1.9 2 2 2.2 0.3 2.9 -3 1.1 -3.8 0.9 -1.8 -0.5z"/>
  <path d="M264.8 320.5 c-1.3 -3 0.3 -7.5 2.7 -7.5 0.9 0 1.5 -1 1.6 -2.2 0.1 -1.6 0.3 -1.8 0.6 -0.6 0.2 0.9 1.5 2.4 2.9 3.2 1.6 1.1 2.4 2.6 2.4 4.4 0 3.7 -1.7 5.2 -5.7 5.2 -2.6 0 -3.6 -0.6 -4.5 -2.5z"/>
  <path d="M289.2 321.8 c-1.6 -1.6 -1.5 -6.1 0 -7.6 1 -1 1 -1.5 -0.2 -2.2 -0.9 -0.6 -1 -1 -0.3 -1 0.6 0 1.5 0.5 1.8 1 0.3 0.6 1.9 1 3.4 1 3.4 0 5.1 1.7 5.1 5 0 3.4 -1.7 5 -5.5 5 -1.7 0 -3.6 -0.5 -4.3 -1.2z"/>
  <path d="M89.2 320.6 c1.6 -0.8 3.4 -1.8 4 -2.2 0.7 -0.4 0.4 0.2 -0.6 1.4 -1.1 1.2 -2.9 2.2 -4 2.2 -1.8 0 -1.7 -0.2 0.6 -1.4z"/>
  <path d="M118.3 321.3 c3.1 -0.2 8.3 -0.2 11.5 0 3.1 0.2 0.5 0.3 -5.8 0.3 -6.3 0 -8.9 -0.1 -5.7 -0.3z"/>
  <path d="M250.1 319.7 c0 -1 -0.7 -3 -1.5 -4.5 -1.3 -2.6 -1.3 -2.8 2.3 -4.5 l3.6 -1.7 -2.8 2.1 c-2.1 1.6 -2.5 2.4 -1.7 3.4 0.6 0.8 1 2.6 0.7 4.2 -0.2 1.5 -0.5 2 -0.6 1z"/>
  <path d="M47.2 317.6 c0.1 -1 0.8 -1.7 1.3 -1.7 1.5 0.1 1.2 2.4 -0.3 2.9 -0.9 0.3 -1.3 -0.2 -1 -1.2z"/>
  <path d="M216.8 314.1 c0.5 -7.5 0.8 -8 1.3 -1.9 0.2 3.3 0 5.9 -0.6 6.2 -0.6 0.2 -0.9 -1.5 -0.7 -4.3z"/>
  <path d="M97.5 316.5 c1.7 -0.8 3.6 -1.4 4.2 -1.5 0.8 0 1.1 -1 0.7 -2.8 -0.5 -2.2 0 -3.6 2.1 -5.8 l2.6 -2.9 -2.2 3.2 c-2.6 3.8 -2 7.9 1.4 9.3 1.6 0.6 1.7 0.9 0.5 0.9 -0.9 0.1 -1.9 -0.3 -2.3 -0.8 -0.3 -0.6 -2.2 -0.4 -4.7 0.5 -5 1.7 -6.3 1.7 -2.3 -0.1z"/>
  <path d="M66.7 313.3 c-0.2 -0.4 1 -1.9 2.7 -3.2 l3.1 -2.5 -2.5 3 c-1.4 1.6 -2.6 3 -2.6 3.2 -0.1 0.2 -0.4 0 -0.7 -0.5z"/>
  <path d="M81 312.9 c-5.9 -2.4 -9.9 -9.6 -8.4 -15.4 1 -3.9 3.4 -3.1 3.4 1.2 0 2.9 0.8 4.3 4 7.5 4.1 3.8 9.1 5.1 10.5 2.7 0.8 -1.3 -3.6 -7.9 -5.2 -7.9 -0.7 0 -1.3 -1.1 -1.3 -2.5 0 -1.9 0.4 -2.3 1.8 -1.8 7.5 2.8 11.8 11.5 7.6 15.7 -1.7 1.8 -8.5 2 -12.4 0.5z"/>
  <path d="M60.2 182.3 c3.2 -0.2 8.4 -0.2 11.5 0 3.2 0.2 0.6 0.3 -5.7 0.3 -6.3 0 -8.9 -0.1 -5.8 -0.3z"/>
  <path d="M243.8 159.3 c1.2 -0.2 3 -0.2 4 0 0.9 0.3 -0.1 0.5 -2.3 0.4 -2.2 0 -3 -0.2 -1.7 -0.4z"/>
  <path d="M260 152.1 c0 -0.4 1.1 -0.6 2.5 -0.3 1.4 0.2 2.5 0.6 2.5 0.8 0 0.2 -1.1 0.4 -2.5 0.4 -1.4 0 -2.5 -0.4 -2.5 -0.9z"/>
  <path d="M242.5 150.9 c0.4 -0.6 0.9 -0.8 1.2 -0.5 0.7 0.6 3.3 -1.9 3.3 -3.2 0 -1.2 7.8 -2.7 8.7 -1.8 0.4 0.3 -0.2 0.6 -1.3 0.6 -1.6 0 -1.7 0.2 -0.4 1 1.2 0.8 1 1 -1 1.1 -2.3 0 -2.4 0.1 -0.5 1 1.7 0.8 1.6 0.9 -0.7 0.6 -1.6 -0.3 -2.9 0.1 -3.2 0.9 -0.3 0.8 -1.9 1.4 -3.6 1.4 -2 0 -2.9 -0.4 -2.5 -1.1z"/>
  <path d="M106.9 132.4 c-1.4 -1.8 -0.3 -4.5 2.2 -5.1 0.8 -0.3 0.7 0 -0.3 0.7 -1 0.6 -1.8 1.7 -1.8 2.5 0 0.8 0.8 1.9 1.8 2.4 0.9 0.6 1.2 1.1 0.6 1.1 -0.6 0 -1.7 -0.7 -2.5 -1.6z"/>
  <path d="M79.4 114.8 c-1.9 -2.3 -1.9 -2.3 0.1 -0.7 1.1 0.9 2.7 1.9 3.5 2.2 1.3 0.5 1.3 0.6 -0.1 0.6 -0.9 0.1 -2.4 -0.9 -3.5 -2.1z"/>
  <path d="M253.1 94.5 c-2.2 -2.4 -4.1 -4.8 -4.1 -5.3 0 -1.2 7.3 -5 8.7 -4.5 1.5 0.6 2.4 -1.2 1.6 -3.3 -0.6 -1.6 -0.7 -1.6 -2 0.2 -1.5 2.1 -1.8 0.7 -0.3 -1.6 0.9 -1.3 1.2 -1.2 2.5 0.4 0.8 1.1 1.5 2.6 1.5 3.3 0 0.7 0.9 1.3 2 1.3 1.1 0 3.6 1.5 5.6 3.3 l3.6 3.3 -4.8 3.7 c-6.4 5 -9.1 4.9 -14.3 -0.8z m5.7 -3.7 c-0.2 -0.7 0.2 -1.3 0.7 -1.3 0.6 0 0.9 0.6 0.9 1.3 -0.2 1.3 2.4 1.6 5 0.6 2.6 -1 1.9 -2.4 -1.9 -4 -2.4 -1 -4.5 -1.2 -6.7 -0.6 -4 1 -4.7 2.9 -1.6 4.1 3.2 1.3 3.9 1.3 3.6 -0.1z"/>
  <path d="M271.5 89 c-0.3 -0.5 -0.1 -1 0.4 -1 0.6 0 1.1 -0.9 1.1 -2 0 -1.1 0.5 -2 1 -2 0.6 0 1 -0.7 1 -1.5 0 -0.8 -0.7 -1.5 -1.5 -1.5 -0.8 0 -1.5 0.8 -1.5 1.8 -0.1 3 -1.9 -1.1 -2.2 -4.9 -0.3 -3.9 -1.7 -5.9 -3.6 -5.2 -0.9 0.4 -1 0.9 -0.2 1.8 0.9 1.1 0.7 1.2 -0.9 0.8 -1.2 -0.3 -2.1 -1 -2.1 -1.5 0 -0.6 -0.5 -0.6 -1.4 0.1 -1.3 1.1 -10.6 1.1 -10.6 0 0 -0.3 -1.8 -1.1 -4 -1.8 -9.2 -2.7 -12.8 -9.7 -7.4 -14 4.9 -3.9 15.1 -2.1 25.4 4.4 2.2 1.4 5 2.5 6.2 2.5 4.4 0 8.4 3.4 9.8 8.4 1.1 4 1 5.2 -0.5 9.1 -2.2 5.9 -7.2 9.5 -9 6.5z"/>
 </g>
 <g fill="#000000">
  <path d="M265.4 320.5 c-1.5 -2.3 -1.5 -2.7 0 -5 2.8 -4.2 9.6 -2.4 9.6 2.5 0 4.9 -6.8 6.7 -9.6 2.5z"/>
  <path d="M289.7 321.2 c-2.2 -2.4 -2.1 -4.5 0.1 -6.5 2.4 -2.2 5.5 -2.1 7.5 0.1 2.2 2.4 2.1 4.5 -0.1 6.5 -2.4 2.2 -5.5 2.1 -7.5 -0.1z"/>
  <path d="M249.8 318.5 c-0.3 -1.1 -0.9 -2.9 -1.3 -4 -0.6 -1.7 -0.5 -1.7 0.9 0.3 1 1.2 1.6 3 1.4 4 -0.3 1.5 -0.5 1.4 -1 -0.3z"/>
  <path d="M47 317.6 c0 -0.8 0.5 -1.8 1 -2.1 0.6 -0.3 1 0.3 1 1.4 0 1.2 -0.4 2.1 -1 2.1 -0.5 0 -1 -0.6 -1 -1.4z"/>
  <path d="M83.2 313.3 c-1.2 -0.2 -4.1 -2.1 -6.2 -4.2 -3.8 -3.6 -4 -4.1 -4 -9.5 l0 -5.8 4.3 0.7 c5.7 0.9 12.7 4.4 15 7.6 2 2.8 2.6 8.4 1 10 -1.2 1.2 -6.9 1.9 -10.1 1.2z"/>
  <path d="M178.8 91.3 c-2.3 -2.2 -2.9 -2.4 -4.2 -1.4 -1.3 1.1 -1.7 0.9 -2.6 -1.3 -1.4 -3.7 -2.3 -7.6 -1.8 -7.6 0.3 0 2.5 0.7 5.1 1.6 4.1 1.4 4.5 1.8 3.4 3.4 -0.9 1.6 -0.7 2.3 1.3 4.5 3.2 3.4 2.1 4.1 -1.2 0.8z"/>
  <path d="M265.8 92 c1.8 -2.1 1.5 -3.6 -1.3 -4.8 -3.9 -1.8 -8.4 -1.4 -12.1 0.9 -1.9 1.1 -3.4 1.8 -3.4 1.6 0 -1.6 7.3 -4.7 10.9 -4.7 3.3 0 4.8 0.6 7.4 3.3 1.8 1.7 2.8 2.9 2.3 2.5 -0.5 -0.4 -1.9 0 -3 0.9 -1.2 1 -1.5 1.1 -0.8 0.3z"/>
  <path d="M270 78.6 c0 -1.3 0.8 -3 1.8 -3.7 1.4 -1.1 1.5 -1.1 0.5 0.1 -1.9 2.1 -1.7 5.4 0.3 4.6 0.8 -0.3 1.2 -0.2 0.9 0.4 -1.2 1.9 -3.5 1 -3.5 -1.4z"/>
  <path d="M256.3 74.3 c0.9 -0.2 2.5 -0.2 3.5 0 0.9 0.3 0.1 0.5 -1.8 0.5 -1.9 0 -2.7 -0.2 -1.7 -0.5z"/>
 </g>
</svg>